<svg xmlns="http://www.w3.org/2000/svg">
  <defs>
    <symbol id="email" viewBox="0 0 512 512">
      <path d="M64 112c-8.8 0-16 7.2-16 16v22.1L220.5 291.7c20.7 17 50.4 17 71.1 0L464 150.1V128c0-8.8-7.2-16-16-16H64zM48 212.2V384c0 8.8 7.2 16 16 16H448c8.8 0 16-7.2 16-16V212.2L322 328.8c-38.4 31.5-93.7 31.5-132 0L48 212.2zM0 128C0 92.7 28.7 64 64 64H448c35.3 0 64 28.7 64 64V384c0 35.3-28.7 64-64 64H64c-35.3 0-64-28.7-64-64V128z"/>
    </symbol>

    <symbol id="linkedin" viewBox="0 0 448 512">
      <path d="M416 32H31.9C14.3 32 0 46.5 0 64.3v383.4C0 465.5 14.3 480 31.9 480H416c17.6 0 32-14.5 32-32.3V64.3c0-17.8-14.4-32.3-32-32.3zM135.4 416H69V202.2h66.5V416zm-33.2-243c-21.3 0-38.5-17.3-38.5-38.5S80.9 96 102.2 96c21.2 0 38.5 17.3 38.5 38.5 0 21.3-17.2 38.5-38.5 38.5zm282.1 243h-66.4V312c0-24.8-.5-56.7-34.5-56.7-34.6 0-39.9 27-39.9 54.9V416h-66.4V202.2h63.7v29.2h.9c8.9-16.8 30.6-34.5 62.9-34.5 67.2 0 79.7 44.3 79.7 101.9V416z"/>
    </symbol>

    <symbol id="github" viewBox="0 0 496 512">
      <path d="M165.9 397.4c0 2-2.3 3.6-5.2 3.6-3.3 .3-5.6-1.3-5.6-3.6 0-2 2.3-3.6 5.2-3.6 3-.3 5.6 1.3 5.6 3.6zm-31.1-4.5c-.7 2 1.3 4.3 4.3 4.9 2.6 1 5.6 0 6.2-2s-1.3-4.3-4.3-5.2c-2.6-.7-5.5 .3-6.2 2.3zm44.2-1.7c-2.9 .7-4.9 2.6-4.6 4.9 .3 2 2.9 3.3 5.9 2.6 2.9-.7 4.9-2.6 4.6-4.6-.3-1.9-3-3.2-5.9-2.9zM244.8 8C106.1 8 0 113.3 0 252c0 110.9 69.8 205.8 169.5 239.2 12.8 2.3 17.3-5.6 17.3-12.1 0-6.2-.3-40.4-.3-61.4 0 0-70 15-84.7-29.8 0 0-11.4-29.1-27.8-36.6 0 0-22.9-15.7 1.6-15.4 0 0 24.9 2 38.6 25.8 21.9 38.6 58.6 27.5 72.9 20.9 2.3-16 8.8-27.1 16-33.7-55.9-6.2-112.3-14.3-112.3-110.5 0-27.5 7.6-41.3 23.6-58.9-2.6-6.5-11.1-33.3 2.6-67.9 20.9-6.5 69 27 69 27 20-5.6 41.5-8.5 62.8-8.5s42.8 2.9 62.8 8.5c0 0 48.1-33.6 69-27 13.7 34.7 5.2 61.4 2.6 67.9 16 17.7 25.8 31.5 25.8 58.9 0 96.5-58.9 104.2-114.8 110.5 9.2 7.9 17 22.9 17 46.4 0 33.7-.3 75.4-.3 83.6 0 6.5 4.6 14.4 17.3 12.1C428.2 457.8 496 362.9 496 252 496 113.3 383.5 8 244.8 8zM97.2 352.9c-1.3 1-1 3.3 .7 5.2 1.6 1.6 3.9 2.3 5.2 1 1.3-1 1-3.3-.7-5.2-1.6-1.6-3.9-2.3-5.2-1zm-10.8-8.1c-.7 1.3 .3 2.9 2.3 3.9 1.6 1 3.6 .7 4.3-.7 .7-1.3-.3-2.9-2.3-3.9-2-.6-3.6-.3-4.3 .7zm32.4 35.6c-1.6 1.3-1 4.3 1.3 6.2 2.3 2.3 5.2 2.6 6.5 1 1.3-1.3 .7-4.3-1.3-6.2-2.2-2.3-5.2-2.6-6.5-1zm-11.4-14.7c-1.6 1-1.6 3.6 0 5.9 1.6 2.3 4.3 3.3 5.6 2.3 1.6-1.3 1.6-3.9 0-6.2-1.4-2.3-4-3.3-5.6-2z"/>
    </symbol>

    <symbol id="gitlab" viewBox="0 0 512 512">
      <path d="M503.5 204.6L502.8 202.8L433.1 21C431.7 17.5 429.2 14.4 425.9 12.4C423.5 10.8 420.8 9.9 417.9 9.6C415 9.3 412.2 9.7 409.5 10.7C406.8 11.7 404.4 13.3 402.4 15.5C400.5 17.6 399.1 20.1 398.3 22.9L351.3 166.9H160.8L113.7 22.9C112.9 20.1 111.5 17.6 109.6 15.5C107.6 13.4 105.2 11.7 102.5 10.7C99.9 9.7 97 9.3 94.1 9.6C91.3 9.9 88.5 10.8 86.1 12.4C82.8 14.4 80.3 17.5 78.9 21L9.3 202.8L8.5 204.6C-1.5 230.8-2.7 259.6 5 286.6C12.8 313.5 29.1 337.3 51.5 354.2L51.7 354.4L52.3 354.8L158.3 434.3L210.9 474L242.9 498.2C246.6 500.1 251.2 502.5 255.9 502.5C260.6 502.5 265.2 500.1 268.9 498.2L300.9 474L353.5 434.3L460.2 354.4L460.5 354.1C482.9 337.2 499.2 313.5 506.1 286.6C514.7 259.6 513.5 230.8 503.5 204.6z"/>
    </symbol>

    <symbol id="youtube" viewBox="0 0 576 512">
      <path d="M549.7 124.1c-6.3-23.7-24.8-42.3-48.3-48.6C458.8 64 288 64 288 64S117.2 64 74.6 75.5c-23.5 6.3-42 24.9-48.3 48.6-11.4 42.9-11.4 132.3-11.4 132.3s0 89.4 11.4 132.3c6.3 23.7 24.8 41.5 48.3 47.8C117.2 448 288 448 288 448s170.8 0 213.4-11.5c23.5-6.3 42-24.2 48.3-47.8 11.4-42.9 11.4-132.3 11.4-132.3s0-89.4-11.4-132.3zm-317.5 213.5V175.2l142.7 81.2-142.7 81.2z"/>
    </symbol>
    
    <symbol id="monkeytype" viewBox="-680 -1030 300 180">
      <path d="M -430 -910 L -430 -910 C -424.481 -910 -420 -905.519 -420 -900 L -420 -900 C -420 -894.481 -424.481 -890 -430 -890 L -430 -890 C -435.519 -890 -440 -894.481 -440 -900 L -440 -900 C -440 -905.519 -435.519 -910 -430 -910 Z"></path>
      <path d=" M -570 -910 L -510 -910 C -504.481 -910 -500 -905.519 -500 -900 L -500 -900 C -500 -894.481 -504.481 -890 -510 -890 L -570 -890 C -575.519 -890 -580 -894.481 -580 -900 L -580 -900 C -580 -905.519 -575.519 -910 -570 -910 Z "></path>
      <path d="M -590 -970 L -590 -970 C -584.481 -970 -580 -965.519 -580 -960 L -580 -940 C -580 -934.481 -584.481 -930 -590 -930 L -590 -930 C -595.519 -930 -600 -934.481 -600 -940 L -600 -960 C -600 -965.519 -595.519 -970 -590 -970 Z"></path>
      <path d=" M -639.991 -960.515 C -639.72 -976.836 -626.385 -990 -610 -990 L -610 -990 C -602.32 -990 -595.31 -987.108 -590 -982.355 C -584.69 -987.108 -577.68 -990 -570 -990 L -570 -990 C -553.615 -990 -540.28 -976.836 -540.009 -960.515 C -540.001 -960.345 -540 -960.172 -540 -960 L -540 -960 L -540 -940 C -540 -934.481 -544.481 -930 -550 -930 L -550 -930 C -555.519 -930 -560 -934.481 -560 -940 L -560 -960 L -560 -960 C -560 -965.519 -564.481 -970 -570 -970 C -575.519 -970 -580 -965.519 -580 -960 L -580 -960 L -580 -960 L -580 -940 C -580 -934.481 -584.481 -930 -590 -930 L -590 -930 C -595.519 -930 -600 -934.481 -600 -940 L -600 -960 L -600 -960 L -600 -960 L -600 -960 L -600 -960 L -600 -960 L -600 -960 L -600 -960 C -600 -965.519 -604.481 -970 -610 -970 C -615.519 -970 -620 -965.519 -620 -960 L -620 -960 L -620 -940 C -620 -934.481 -624.481 -930 -630 -930 L -630 -930 C -635.519 -930 -640 -934.481 -640 -940 L -640 -960 L -640 -960 C -640 -960.172 -639.996 -960.344 -639.991 -960.515 Z "></path>
      <path d=" M -460 -930 L -460 -900 C -460 -894.481 -464.481 -890 -470 -890 L -470 -890 C -475.519 -890 -480 -894.481 -480 -900 L -480 -930 L -508.82 -930 C -514.99 -930 -520 -934.481 -520 -940 L -520 -940 C -520 -945.519 -514.99 -950 -508.82 -950 L -431.18 -950 C -425.01 -950 -420 -945.519 -420 -940 L -420 -940 C -420 -934.481 -425.01 -930 -431.18 -930 L -460 -930 Z "></path>
      <path d="M -470 -990 L -430 -990 C -424.481 -990 -420 -985.519 -420 -980 L -420 -980 C -420 -974.481 -424.481 -970 -430 -970 L -470 -970 C -475.519 -970 -480 -974.481 -480 -980 L -480 -980 C -480 -985.519 -475.519 -990 -470 -990 Z"></path>
      <path d=" M -630 -910 L -610 -910 C -604.481 -910 -600 -905.519 -600 -900 L -600 -900 C -600 -894.481 -604.481 -890 -610 -890 L -630 -890 C -635.519 -890 -640 -894.481 -640 -900 L -640 -900 C -640 -905.519 -635.519 -910 -630 -910 Z "></path>
      <path d=" M -515 -990 L -510 -990 C -504.481 -990 -500 -985.519 -500 -980 L -500 -980 C -500 -974.481 -504.481 -970 -510 -970 L -515 -970 C -520.519 -970 -525 -974.481 -525 -980 L -525 -980 C -525 -985.519 -520.519 -990 -515 -990 Z "></path>
      <path d=" M -660 -910 L -680 -910 L -680 -980 C -680 -1007.596 -657.596 -1030 -630 -1030 L -430 -1030 C -402.404 -1030 -380 -1007.596 -380 -980 L -380 -900 C -380 -872.404 -402.404 -850 -430 -850 L -630 -850 C -657.596 -850 -680 -872.404 -680 -900 L -680 -920 L -660 -920 L -660 -900 C -660 -883.443 -646.557 -870 -630 -870 L -430 -870 C -413.443 -870 -400 -883.443 -400 -900 L -400 -980 C -400 -996.557 -413.443 -1010 -430 -1010 L -630 -1010 C -646.557 -1010 -660 -996.557 -660 -980 L -660 -910 Z "></path>
    </symbol>
  </defs>
</svg>