<svg xmlns="http://www.w3.org/2000/svg">
  <defs>
    <symbol id="figma" viewBox="0 0 128 128">
      <path fill="#0acf83" d="M45.5 129c11.9 0 21.5-9.6 21.5-21.5V86H45.5C33.6 86 24 95.6 24 107.5S33.6 129 45.5 129zm0 0"></path><path fill="#a259ff" d="M24 64.5C24 52.6 33.6 43 45.5 43H67v43H45.5C33.6 86 24 76.4 24 64.5zm0 0"></path><path fill="#f24e1e" d="M24 21.5C24 9.6 33.6 0 45.5 0H67v43H45.5C33.6 43 24 33.4 24 21.5zm0 0"></path><path fill="#ff7262" d="M67 0h21.5C100.4 0 110 9.6 110 21.5S100.4 43 88.5 43H67zm0 0"></path><path fill="#1abcfe" d="M110 64.5c0 11.9-9.6 21.5-21.5 21.5S67 76.4 67 64.5 76.6 43 88.5 43 110 52.6 110 64.5zm0 0"></path>
    </symbol>

    <symbol id="dribbble" viewBox="0 0 502.456 502.456">
      <path style="fill:#F26B95;" d="M482.676,153.424c-6.256-14.888-14.104-29.248-23.168-42.648  c-8.944-13.288-19.296-25.824-30.632-37.168c-11.376-11.368-23.88-21.68-37.192-30.664c-13.424-9.096-27.776-16.864-42.648-23.176  c-15.2-6.384-31.096-11.344-47.224-14.632C285.276,1.744,268.252,0,251.236,0c-17.04,0-34.056,1.744-50.608,5.136  c-16.144,3.288-32.024,8.248-47.208,14.632c-14.888,6.312-29.248,14.088-42.696,23.176c-13.28,8.984-25.792,19.296-37.168,30.664  c-11.344,11.352-21.64,23.88-30.632,37.168c-9.064,13.4-16.88,27.76-23.16,42.648c-6.44,15.184-11.368,31.112-14.688,47.248  c-3.368,16.496-5.072,33.512-5.072,50.536c0,17.072,1.704,34.088,5.072,50.616c3.32,16.144,8.248,32.024,14.688,47.184  c6.272,14.872,14.096,29.304,23.16,42.704c8.992,13.296,19.288,25.768,30.632,37.168c11.384,11.336,23.888,21.624,37.168,30.632  c13.448,9.072,27.808,16.864,42.696,23.152c15.184,6.448,31.072,11.352,47.208,14.64c16.552,3.424,33.568,5.136,50.608,5.136  c17.016,0,34.04-1.712,50.576-5.136c16.136-3.288,32.024-8.192,47.224-14.64c14.872-6.28,29.224-14.08,42.648-23.152  c13.312-9.008,25.824-19.296,37.192-30.632c11.336-11.408,21.688-23.872,30.632-37.168c9.064-13.4,16.904-27.832,23.168-42.704  c6.416-15.168,11.384-31.048,14.688-47.184c3.352-16.528,5.088-33.544,5.088-50.616c0-17.024-1.736-34.04-5.088-50.536  C494.052,184.536,489.084,168.616,482.676,153.424z M251.228,36.688c54.296,0,103.888,20.264,141.696,53.552  c-0.536,0.8-31.08,47.312-112.096,77.656c-36.656-67.376-76.968-120.904-80.16-125.168  C216.852,38.816,233.796,36.688,251.228,36.688z M199.82,42.912c0,0.032-0.04,0.064-0.04,0.064s-0.256,0.064-0.648,0.128  C199.38,43.04,199.58,43.008,199.82,42.912z M159.668,57.208c2.864,3.816,42.544,57.608,79.696,123.608  c-103.04,27.376-192.456,26.288-198.096,26.192C55.18,140.552,99.804,85.456,159.668,57.208z M91.636,394.592  c-34.176-38.024-54.984-88.264-54.984-143.376c0-2.288,0.12-4.528,0.176-6.776c3.816,0.088,109.816,2.488,220.272-30.576  c6.152,12.032,12.024,24.28,17.416,36.496c-2.832,0.76-5.648,1.608-8.464,2.56C150.284,290.32,91.54,394.472,91.54,394.472  L91.636,394.592z M251.228,465.784c-50.664,0-97.216-17.6-133.952-47c-0.76-0.592-1.656-1.296-2.76-2.184  c1.104,0.888,2,1.592,2.76,2.184c1.256,0.976,2.072,1.568,2.072,1.568s41.12-89.688,168.376-134.024  c0.464-0.168,0.968-0.296,1.448-0.44c30.176,78.424,42.616,144.128,45.816,162.872C309.244,459.712,280.924,465.784,251.228,465.784  z M371.108,429.16c-2.184-12.944-13.608-75.92-41.768-153.224c69.272-11.08,129.272,7.912,133.712,9.368  C453.516,345.08,419.26,396.632,371.108,429.16z M316.3,242.056c-1.552-3.664-3.064-7.36-4.656-11.048  c-4.456-10.512-9.272-20.92-14.256-31.136c84.728-34.584,119.12-84.32,119.52-84.896c30.088,36.528,48.304,83.208,48.808,134.112  C462.62,248.408,390.012,232.768,316.3,242.056z"/>
      <path style="fill:#E64C87;" d="M482.676,153.424c-6.256-14.888-14.104-29.248-23.168-42.648c-2.832-4.208-5.856-8.32-8.96-12.368  c-9.272,6.936-19.44,13.88-30.44,20.8c28.096,35.888,45.12,80.872,45.6,129.872c-3.096-0.672-75.704-16.312-149.416-7.032  c-1.552-3.664-3.064-7.36-4.656-11.048c-4.456-10.512-9.272-20.92-14.256-31.136c58.784-23.992,93.296-55.248,109.08-72.352  c-52.624,31.056-121.328,60.888-198.696,84.344c-48.208,14.624-94.992,25.28-138.192,32.096  c40.424-1.616,112.936-7.768,187.528-30.096c6.152,12.032,12.024,24.28,17.416,36.496c-2.832,0.76-5.648,1.608-8.464,2.56  C150.284,290.32,91.54,394.472,91.54,394.472l0.096,0.12c-34.176-38.024-54.984-88.264-54.984-143.376  c0-0.928,0.048-1.832,0.08-2.752c-12.64,1.48-24.936,2.616-36.72,3.368c0.032,16.856,1.728,33.672,5.056,50  c3.32,16.144,8.248,32.024,14.688,47.184c6.272,14.872,14.096,29.304,23.16,42.704c8.992,13.296,19.288,25.768,30.632,37.168  c11.384,11.336,23.888,21.624,37.168,30.632c13.448,9.072,27.808,16.864,42.696,23.152c15.184,6.448,31.072,11.352,47.208,14.64  c16.552,3.424,33.568,5.136,50.608,5.136c17.016,0,34.04-1.712,50.576-5.136c16.136-3.288,32.024-8.192,47.224-14.64  c14.872-6.28,29.224-14.08,42.648-23.152c13.312-9.008,25.824-19.296,37.192-30.632c11.336-11.408,21.688-23.872,30.632-37.168  c9.064-13.4,16.904-27.832,23.168-42.704c6.416-15.168,11.384-31.048,14.688-47.184c3.352-16.528,5.088-33.544,5.088-50.616  c0-17.024-1.736-34.04-5.088-50.536C494.052,184.536,489.084,168.616,482.676,153.424z M251.228,465.784  c-49.736,0-95.456-17.032-131.856-45.472c0.392-0.848,41.712-89.856,168.352-133.984c0.464-0.168,0.968-0.296,1.448-0.44  c30.176,78.424,42.616,144.128,45.816,162.872C309.244,459.712,280.924,465.784,251.228,465.784z M371.108,429.16  c-2.184-12.944-13.608-75.92-41.768-153.224c69.272-11.08,129.272,7.912,133.712,9.368  C453.516,345.08,419.26,396.632,371.108,429.16z"/>
      <g>
        <path style="fill:#BA3A7B;" d="M461.084,295.816c-11.688,55.288-44.672,102.736-89.976,133.344   c-0.824-4.856-2.944-16.768-6.76-33.832c-11.528,7.392-23.592,13.984-36.104,19.752c3.496,15.64,5.648,27.376,6.728,33.688   c-25.736,10.936-54.056,17.016-83.752,17.016c-40.248,0-77.768-11.296-109.952-30.624c-34.56-7.64-66.904-21.376-95.952-40.048   c8.424,12.016,17.856,23.36,28.216,33.784c11.384,11.336,23.888,21.624,37.168,30.632c13.448,9.072,27.808,16.864,42.696,23.152   c15.184,6.448,31.072,11.352,47.208,14.64c16.552,3.424,33.568,5.136,50.608,5.136c17.016,0,34.04-1.712,50.576-5.136   c16.136-3.288,32.024-8.192,47.224-14.64c14.872-6.28,29.224-14.08,42.648-23.152c13.312-9.008,25.824-19.296,37.192-30.632   c11.336-11.408,21.688-23.872,30.632-37.168c9.064-13.4,16.904-27.832,23.168-42.704c6.416-15.168,11.384-31.048,14.688-47.184   c3.352-16.528,5.088-33.544,5.088-50.616c0-15.648-1.528-31.28-4.376-46.52C490.492,237.384,477.884,268.064,461.084,295.816z"/>
        <circle style="fill:#BA3A7B;" cx="215.996" cy="411.784" r="9"/>
        <circle style="fill:#BA3A7B;" cx="258.996" cy="424.816" r="4"/>
        <circle style="fill:#BA3A7B;" cx="282.996" cy="358.824" r="8"/>
        <circle style="fill:#BA3A7B;" cx="404.98" cy="368.816" r="4"/>
        <circle style="fill:#BA3A7B;" cx="423.996" cy="321.816" r="3"/>
        <circle style="fill:#BA3A7B;" cx="29.996" cy="476.824" r="3"/>
      </g>
      <g>
        <circle style="fill:#E64C87;" cx="36.996" cy="444.824" r="12"/>
        <circle style="fill:#E64C87;" cx="93.996" cy="299.784" r="7"/>
        <circle style="fill:#E64C87;" cx="302.996" cy="425.816" r="7"/>
        <circle style="fill:#E64C87;" cx="94.996" cy="346.816" r="6"/>
        <circle style="fill:#E64C87;" cx="204.98" cy="378.816" r="6"/>
        <circle style="fill:#E64C87;" cx="164.98" cy="414.824" r="6"/>
        <circle style="fill:#E64C87;" cx="128.996" cy="284.824" r="4"/>
        <circle style="fill:#E64C87;" cx="260.98" cy="390.824" r="4"/>
        <circle style="fill:#E64C87;" cx="72.996" cy="462.824" r="4"/>
      </g>
    </symbol>  

    <symbol id="nodejs" viewBox="0 0 128 128">
      <path fill="#5fa04e" d="M63.999 0a5.617 5.617 0 0 0-2.789.744L11.445 29.646 28.852 61.58 64.592.053A8.177 8.177 0 0 0 64.003 0Zm2.316.605v.002l35.194 60.577 16.545-30.449a5.483 5.483 0 0 0-1.028-.817L91.38 15.024 66.7.754h-.007c-.12-.061-.252-.099-.378-.15Zm-1.024.248L29.417 62.616l35.579 65.278c.1-.02.198-.023.297-.05l35.653-65.624ZM10.586 30.176c-1.502 1.031-2.35 2.752-2.35 4.595v58.478c0 .93.254 1.838.684 2.645l19.34-33.293Zm108.161 1.4-16.643 30.629 17.66 30.398V34.77c0-1.15-.382-2.265-1.017-3.195zm-17.204 31.667-34.808 64.062.055-.028 50.243-29.183.004-.002c1.402-.793 2.3-2.155 2.604-3.693zm-72.718.394L9.545 96.832c.406.5.885.936 1.43 1.266l.001.004 49.702 28.866.53.305.006.002h.002c.257.151.528.266.798.372.144.054.288.104.433.146.125.037.251.062.376.089.242.051.483.088.727.108.118.01.237.01.355.01z"></path>
    </symbol>

    <symbol id="typescript" fill="none" viewBox="0 0 512 512">
      <rect fill="#3178c6" height="512" rx="50" width="512"/>
      <rect fill="#3178c6" height="512" rx="50" width="512"/>
      <path clip-rule="evenodd" fill="#fff" fill-rule="evenodd" d="m316.939 407.424v50.061c8.138 4.172 17.763 7.3 28.875 9.386s22.823 3.129 35.135 3.129c11.999 0 23.397-1.147 34.196-3.442 10.799-2.294 20.268-6.075 28.406-11.342 8.138-5.266 14.581-12.15 19.328-20.65s7.121-19.007 7.121-31.522c0-9.074-1.356-17.026-4.069-23.857s-6.625-12.906-11.738-18.225c-5.112-5.319-11.242-10.091-18.389-14.315s-15.207-8.213-24.18-11.967c-6.573-2.712-12.468-5.345-17.685-7.9-5.217-2.556-9.651-5.163-13.303-7.822-3.652-2.66-6.469-5.476-8.451-8.448-1.982-2.973-2.974-6.336-2.974-10.091 0-3.441.887-6.544 2.661-9.308s4.278-5.136 7.512-7.118c3.235-1.981 7.199-3.52 11.894-4.615 4.696-1.095 9.912-1.642 15.651-1.642 4.173 0 8.581.313 13.224.938 4.643.626 9.312 1.591 14.008 2.894 4.695 1.304 9.259 2.947 13.694 4.928 4.434 1.982 8.529 4.276 12.285 6.884v-46.776c-7.616-2.92-15.937-5.084-24.962-6.492s-19.381-2.112-31.066-2.112c-11.895 0-23.163 1.278-33.805 3.833s-20.006 6.544-28.093 11.967c-8.086 5.424-14.476 12.333-19.171 20.729-4.695 8.395-7.043 18.433-7.043 30.114 0 14.914 4.304 27.638 12.912 38.172 8.607 10.533 21.675 19.45 39.204 26.751 6.886 2.816 13.303 5.579 19.25 8.291s11.086 5.528 15.415 8.448c4.33 2.92 7.747 6.101 10.252 9.543 2.504 3.441 3.756 7.352 3.756 11.733 0 3.233-.783 6.231-2.348 8.995s-3.939 5.162-7.121 7.196-7.147 3.624-11.894 4.771c-4.748 1.148-10.303 1.721-16.668 1.721-10.851 0-21.597-1.903-32.24-5.71-10.642-3.806-20.502-9.516-29.579-17.13zm-84.159-123.342h64.22v-41.082h-179v41.082h63.906v182.918h50.874z"/>
    </symbol>

    <symbol id="sass" viewBox="0 0 128 128">
      <path fill-rule="evenodd" clip-rule="evenodd" fill="#CB6699" d="M1.219 56.156c0 .703.207 1.167.323 1.618.756 2.933 2.381 5.45 4.309 7.746 2.746 3.272 6.109 5.906 9.554 8.383 2.988 2.148 6.037 4.248 9.037 6.38.515.366 1.002.787 1.561 1.236-.481.26-.881.489-1.297.7-3.959 2.008-7.768 4.259-11.279 6.986-2.116 1.644-4.162 3.391-5.607 5.674-2.325 3.672-3.148 7.584-1.415 11.761.506 1.22 1.278 2.274 2.367 3.053.353.252.749.502 1.162.6 1.058.249 2.136.412 3.207.609l3.033-.002c3.354-.299 6.407-1.448 9.166-3.352 4.312-2.976 7.217-6.966 8.466-12.087.908-3.722.945-7.448-.125-11.153a11.696 11.696 0 00-.354-1.014c-.13-.333-.283-.657-.463-1.072l6.876-3.954.103.088c-.125.409-.258.817-.371 1.23-.817 2.984-1.36 6.02-1.165 9.117.208 3.3 1.129 6.389 3.061 9.146 1.562 2.23 5.284 2.313 6.944.075.589-.795 1.16-1.626 1.589-2.513 1.121-2.315 2.159-4.671 3.23-7.011l.187-.428c-.077 1.108-.167 2.081-.208 3.055-.064 1.521.025 3.033.545 4.48.445 1.238 1.202 2.163 2.62 2.326.97.111 1.743-.333 2.456-.896a10.384 10.384 0 002.691-3.199c1.901-3.491 3.853-6.961 5.576-10.54 1.864-3.871 3.494-7.855 5.225-11.792l.286-.698c.409 1.607.694 3.181 1.219 4.671.61 1.729 1.365 3.417 2.187 5.058.389.775.344 1.278-.195 1.928-2.256 2.72-4.473 5.473-6.692 8.223-.491.607-.98 1.225-1.389 1.888a3.701 3.701 0 00-.48 1.364 1.737 1.737 0 001.383 1.971 9.661 9.661 0 002.708.193c3.097-.228 5.909-1.315 8.395-3.157 3.221-2.386 4.255-5.642 3.475-9.501-.211-1.047-.584-2.065-.947-3.074-.163-.455-.174-.774.123-1.198 2.575-3.677 4.775-7.578 6.821-11.569.081-.157.164-.314.306-.482.663 3.45 1.661 6.775 3.449 9.792-.912.879-1.815 1.676-2.632 2.554-1.799 1.934-3.359 4.034-4.173 6.595-.35 1.104-.619 2.226-.463 3.405.242 1.831 1.742 3.021 3.543 2.604 3.854-.892 7.181-2.708 9.612-5.925 1.636-2.166 1.785-4.582 1.1-7.113-.188-.688-.411-1.365-.651-2.154.951-.295 1.878-.649 2.837-.868 4.979-1.136 9.904-.938 14.702.86 2.801 1.05 5.064 2.807 6.406 5.571 1.639 3.379.733 6.585-2.452 8.721-.297.199-.637.356-.883.605a.869.869 0 00-.205.67c.021.123.346.277.533.275 1.047-.008 1.896-.557 2.711-1.121 2.042-1.413 3.532-3.314 3.853-5.817l.063-.188-.077-1.63c-.031-.094.023-.187.016-.258-.434-3.645-2.381-6.472-5.213-8.688-3.28-2.565-7.153-3.621-11.249-3.788a25.401 25.401 0 00-9.765 1.503c-.897.325-1.786.71-2.688 1.073-.121-.219-.251-.429-.358-.646-.926-1.896-2.048-3.708-2.296-5.882-.176-1.544-.392-3.086-.025-4.613.353-1.469.813-2.913 1.246-4.362.223-.746.066-1.164-.646-1.5a2.854 2.854 0 00-.786-.258c-1.75-.254-3.476-.109-5.171.384-.6.175-1.036.511-1.169 1.175-.076.381-.231.746-.339 1.122-.443 1.563-.757 3.156-1.473 4.645-1.794 3.735-3.842 7.329-5.938 10.897-.227.385-.466.763-.752 1.23-.736-1.54-1.521-2.922-1.759-4.542-.269-1.832-.481-3.661-.025-5.479.339-1.356.782-2.687 1.19-4.025.193-.636.104-.97-.472-1.305-.291-.169-.62-.319-.948-.368a11.643 11.643 0 00-5.354.438c-.543.176-.828.527-.994 1.087-.488 1.652-.904 3.344-1.589 4.915-2.774 6.36-5.628 12.687-8.479 19.013-.595 1.321-1.292 2.596-1.963 3.882-.17.326-.418.613-.63.919-.17-.201-.236-.339-.235-.477.005-.813-.092-1.65.063-2.436a172.189 172.189 0 011.578-7.099c.47-1.946 1.017-3.874 1.538-5.807.175-.647.178-1.252-.287-1.796-.781-.911-2.413-1.111-3.381-.409l-.428.242.083-.69c.204-1.479.245-2.953-.161-4.41-.506-1.816-1.802-2.861-3.686-2.803-.878.027-1.8.177-2.613.497-3.419 1.34-6.048 3.713-8.286 6.568a2.592 2.592 0 01-.757.654c-2.893 1.604-5.795 3.188-8.696 4.778l-3.229 1.769c-.866-.826-1.653-1.683-2.546-2.41-2.727-2.224-5.498-4.393-8.244-6.592-2.434-1.949-4.792-3.979-6.596-6.56-1.342-1.92-2.207-4.021-2.29-6.395-.105-3.025.753-5.789 2.293-8.362 1.97-3.292 4.657-5.934 7.611-8.327 3.125-2.53 6.505-4.678 10.008-6.639 4.901-2.743 9.942-5.171 15.347-6.774 5.542-1.644 11.165-2.585 16.965-1.929 2.28.258 4.494.78 6.527 1.895 1.557.853 2.834 1.97 3.428 3.716.586 1.718.568 3.459.162 5.204-.825 3.534-2.76 6.447-5.195 9.05-3.994 4.267-8.866 7.172-14.351 9.091a39.478 39.478 0 01-9.765 2.083c-2.729.229-5.401-.013-7.985-.962-1.711-.629-3.201-1.591-4.399-2.987-.214-.25-.488-.521-.887-.287-.391.23-.46.602-.329.979.219.626.421 1.278.762 1.838.857 1.405 2.107 2.424 3.483 3.298 2.643 1.681 5.597 2.246 8.66 2.377 4.648.201 9.183-.493 13.654-1.74 6.383-1.78 11.933-4.924 16.384-9.884 3.706-4.13 6.353-8.791 6.92-14.419.277-2.747-.018-5.438-1.304-7.944-1.395-2.715-3.613-4.734-6.265-6.125C68.756 18.179 64.588 17 60.286 17h-4.31c-5.21 0-10.247 1.493-15.143 3.274-3.706 1.349-7.34 2.941-10.868 4.703-7.683 3.839-14.838 8.468-20.715 14.833-2.928 3.171-5.407 6.67-6.833 10.79a40.494 40.494 0 00-1.111 3.746m27.839 36.013c-.333 4.459-2.354 8.074-5.657 11.002-1.858 1.646-3.989 2.818-6.471 3.23-.9.149-1.821.185-2.694-.188-1.245-.532-1.524-1.637-1.548-2.814-.037-1.876.62-3.572 1.521-5.186 1.176-2.104 2.9-3.708 4.741-5.206 2.9-2.361 6.046-4.359 9.268-6.245l.243-.1c.498 1.84.735 3.657.597 5.507zM54.303 70.98c-.235 1.424-.529 2.849-.945 4.229-1.438 4.777-3.285 9.406-5.282 13.973-.369.845-.906 1.616-1.373 2.417a1.689 1.689 0 01-.283.334c-.578.571-1.126.541-1.418-.206-.34-.868-.549-1.797-.729-2.716-.121-.617-.092-1.265-.13-1.897.039-4.494 1.41-8.578 3.736-12.38.959-1.568 2.003-3.062 3.598-4.054a6.27 6.27 0 011.595-.706c.85-.239 1.372.154 1.231 1.006zm17.164 21.868l6.169-7.203c.257 2.675-4.29 8.015-6.169 7.203zm19.703-4.847c-.436.25-.911.43-1.358.661-.409.212-.544-.002-.556-.354a2.385 2.385 0 01.093-.721c.833-2.938 2.366-5.446 4.647-7.486l.16-.082c1.085 3.035-.169 6.368-2.986 7.982z"></path>
    </symbol>

    <symbol id="next" viewBox="0 0 128 128">
      <path d="M64 0C28.7 0 0 28.7 0 64s28.7 64 64 64c11.2 0 21.7-2.9 30.8-7.9L48.4 55.3v36.6h-6.8V41.8h6.8l50.5 75.8C116.4 106.2 128 86.5 128 64c0-35.3-28.7-64-64-64zm22.1 84.6-7.5-11.3V41.8h7.5v42.8z"></path>
    </symbol>

    <symbol id="react" viewBox="0 0 128 128">
      <g fill="#61DAFB"><circle cx="64" cy="64" r="11.4"></circle><path d="M107.3 45.2c-2.2-.8-4.5-1.6-6.9-2.3.6-2.4 1.1-4.8 1.5-7.1 2.1-13.2-.2-22.5-6.6-26.1-1.9-1.1-4-1.6-6.4-1.6-7 0-15.9 5.2-24.9 13.9-9-8.7-17.9-13.9-24.9-13.9-2.4 0-4.5.5-6.4 1.6-6.4 3.7-8.7 13-6.6 26.1.4 2.3.9 4.7 1.5 7.1-2.4.7-4.7 1.4-6.9 2.3C8.2 50 1.4 56.6 1.4 64s6.9 14 19.3 18.8c2.2.8 4.5 1.6 6.9 2.3-.6 2.4-1.1 4.8-1.5 7.1-2.1 13.2.2 22.5 6.6 26.1 1.9 1.1 4 1.6 6.4 1.6 7.1 0 16-5.2 24.9-13.9 9 8.7 17.9 13.9 24.9 13.9 2.4 0 4.5-.5 6.4-1.6 6.4-3.7 8.7-13 6.6-26.1-.4-2.3-.9-4.7-1.5-7.1 2.4-.7 4.7-1.4 6.9-2.3 12.5-4.8 19.3-11.4 19.3-18.8s-6.8-14-19.3-18.8zM92.5 14.7c4.1 2.4 5.5 9.8 3.8 20.3-.3 2.1-.8 4.3-1.4 6.6-5.2-1.2-10.7-2-16.5-2.5-3.4-4.8-6.9-9.1-10.4-13 7.4-7.3 14.9-12.3 21-12.3 1.3 0 2.5.3 3.5.9zM81.3 74c-1.8 3.2-3.9 6.4-6.1 9.6-3.7.3-7.4.4-11.2.4-3.9 0-7.6-.1-11.2-.4-2.2-3.2-4.2-6.4-6-9.6-1.9-3.3-3.7-6.7-5.3-10 1.6-3.3 3.4-6.7 5.3-10 1.8-3.2 3.9-6.4 6.1-9.6 3.7-.3 7.4-.4 11.2-.4 3.9 0 7.6.1 11.2.4 2.2 3.2 4.2 6.4 6 9.6 1.9 3.3 3.7 6.7 5.3 10-1.7 3.3-3.4 6.6-5.3 10zm8.3-3.3c1.5 3.5 2.7 6.9 3.8 10.3-3.4.8-7 1.4-10.8 1.9 1.2-1.9 2.5-3.9 3.6-6 1.2-2.1 2.3-4.2 3.4-6.2zM64 97.8c-2.4-2.6-4.7-5.4-6.9-8.3 2.3.1 4.6.2 6.9.2 2.3 0 4.6-.1 6.9-.2-2.2 2.9-4.5 5.7-6.9 8.3zm-18.6-15c-3.8-.5-7.4-1.1-10.8-1.9 1.1-3.3 2.3-6.8 3.8-10.3 1.1 2 2.2 4.1 3.4 6.1 1.2 2.2 2.4 4.1 3.6 6.1zm-7-25.5c-1.5-3.5-2.7-6.9-3.8-10.3 3.4-.8 7-1.4 10.8-1.9-1.2 1.9-2.5 3.9-3.6 6-1.2 2.1-2.3 4.2-3.4 6.2zM64 30.2c2.4 2.6 4.7 5.4 6.9 8.3-2.3-.1-4.6-.2-6.9-.2-2.3 0-4.6.1-6.9.2 2.2-2.9 4.5-5.7 6.9-8.3zm22.2 21l-3.6-6c3.8.5 7.4 1.1 10.8 1.9-1.1 3.3-2.3 6.8-3.8 10.3-1.1-2.1-2.2-4.2-3.4-6.2zM31.7 35c-1.7-10.5-.3-17.9 3.8-20.3 1-.6 2.2-.9 3.5-.9 6 0 13.5 4.9 21 12.3-3.5 3.8-7 8.2-10.4 13-5.8.5-11.3 1.4-16.5 2.5-.6-2.3-1-4.5-1.4-6.6zM7 64c0-4.7 5.7-9.7 15.7-13.4 2-.8 4.2-1.5 6.4-2.1 1.6 5 3.6 10.3 6 15.6-2.4 5.3-4.5 10.5-6 15.5C15.3 75.6 7 69.6 7 64zm28.5 49.3c-4.1-2.4-5.5-9.8-3.8-20.3.3-2.1.8-4.3 1.4-6.6 5.2 1.2 10.7 2 16.5 2.5 3.4 4.8 6.9 9.1 10.4 13-7.4 7.3-14.9 12.3-21 12.3-1.3 0-2.5-.3-3.5-.9zM96.3 93c1.7 10.5.3 17.9-3.8 20.3-1 .6-2.2.9-3.5.9-6 0-13.5-4.9-21-12.3 3.5-3.8 7-8.2 10.4-13 5.8-.5 11.3-1.4 16.5-2.5.6 2.3 1 4.5 1.4 6.6zm9-15.6c-2 .8-4.2 1.5-6.4 2.1-1.6-5-3.6-10.3-6-15.6 2.4-5.3 4.5-10.5 6-15.5 13.8 4 22.1 10 22.1 15.6 0 4.7-5.8 9.7-15.7 13.4z"></path></g>
    </symbol>

    <symbol id="astro" viewBox="0 0 85 107">
      <path d="M27.5894 91.1365C22.7555 86.7178 21.3444 77.4335 23.3583 70.7072C26.8503 74.948 31.6888 76.2914 36.7005 77.0497C44.4375 78.2199 52.0359 77.7822 59.2232 74.2459C60.0454 73.841 60.8052 73.3027 61.7036 72.7574C62.378 74.714 62.5535 76.6892 62.318 78.6996C61.7452 83.5957 59.3086 87.3778 55.4332 90.2448C53.8835 91.3916 52.2437 92.4167 50.6432 93.4979C45.7262 96.8213 44.3959 100.718 46.2435 106.386C46.2874 106.525 46.3267 106.663 46.426 107C43.9155 105.876 42.0817 104.24 40.6845 102.089C39.2087 99.8193 38.5066 97.3081 38.4696 94.5909C38.4511 93.2686 38.4511 91.9345 38.2733 90.6309C37.8391 87.4527 36.3471 86.0297 33.5364 85.9478C30.6518 85.8636 28.37 87.6469 27.7649 90.4554C27.7187 90.6707 27.6517 90.8837 27.5847 91.1341L27.5894 91.1365Z" fill="#F041FF"/>
      <path d="M0 69.5866C0 69.5866 14.3139 62.6137 28.6678 62.6137L39.4901 29.1204C39.8953 27.5007 41.0783 26.3999 42.4139 26.3999C43.7495 26.3999 44.9325 27.5007 45.3377 29.1204L56.1601 62.6137C73.1601 62.6137 84.8278 69.5866 84.8278 69.5866C84.8278 69.5866 60.5145 3.35233 60.467 3.21944C59.7692 1.2612 58.5911 0 57.0029 0H27.8274C26.2392 0 25.1087 1.2612 24.3634 3.21944C24.3108 3.34983 0 69.5866 0 69.5866Z" fill="currentColor"/>
    </symbol>

    <symbol id="svelte" viewBox="0 0 128 128">
      <path d="M 110.43093,16.935847 C 98.552474,-0.076153 75.089104,-5.118154 58.130818,5.695846 l -29.793,19.000001 c -4.030441,2.529 -7.488786,5.871 -10.15468,9.814 -2.665895,3.943 -4.479469,8.399 -5.325138,13.083 a 25.478172,30.64 0 0 0 -0.572094,6.396 c 0.0183,5.831 1.446866,11.571 4.163485,16.729995 -2.546986,3.87201 -4.285721,8.22 -5.110602,12.78201 a 25.347621,30.483 0 0 0 0.345086,14.41199 c 1.072679,4.732998 3.078336,9.203998 5.900559,13.151998 11.877618,17.011 35.393374,22.053 52.299272,11.24 l 29.762238,-19.001 c 4.027946,-2.532 7.482126,-5.877998 10.141386,-9.824998 2.65841,-3.947 4.46282,-8.40699 5.29686,-13.093 0.3825,-2.107 0.57458,-4.244 0.5721,-6.386 -0.007,-5.81999 -1.41778,-11.550995 -4.11194,-16.708995 2.54616,-3.869 4.28489,-8.213 5.11143,-12.771 0.36921,-2.109 0.55713,-4.245 0.56212,-6.386 0.002,-7.595 -2.37152,-15 -6.78697,-21.178 z" fill="#ff3e00" id="path598" style="stroke-width:0.911885"></path><path d="m 55.218941,112.66204 a 28.463375,34.23 0 0 1 -5.953776,0.76 c -3.820895,0.001 -7.585244,-0.925 -10.970416,-2.7 -3.384341,-1.774 -6.288887,-4.343 -8.464177,-7.487 -2.655917,-3.716 -4.082827,-8.171 -4.080332,-12.74 a 15.657767,18.83 0 0 1 0.332613,-3.833 15.424937,18.55 0 0 1 0.719276,-2.782 l 0.562116,-1.708 1.51921,1.156 c 3.528195,2.591 7.470493,4.564 11.658097,5.834 l 1.104275,0.333 -0.103941,1.104 v 0.573 c -0.0025,1.381 0.427408,2.73 1.228174,3.854 0.646933,0.958 1.51838,1.744 2.537839,2.288 a 8.2621121,9.936 0 0 0 3.311997,0.837 8.2513022,9.923 0 0 0 1.79029,-0.229 7.2717563,8.745 0 0 0 1.832699,-0.802 l 29.760566,-19.094 c 0.892236,-0.566 1.627311,-1.349 2.135377,-2.276 0.507236,-0.927 0.771662,-1.968 0.768337,-3.026 -0.0084,-1.381 -0.449027,-2.725 -1.259773,-3.844 -0.656912,-0.946 -1.533347,-1.718 -2.553637,-2.252 a 8.3128357,9.997 0 0 0 -3.307008,-0.81 8.246313,9.917 0 0 0 -1.79029,0.23 6.9383115,8.344 0 0 0 -1.821058,0.801 l -11.346268,7.25 a 24.375558,29.314 0 0 1 -6.04774,2.656 c -1.945787,0.502 -3.945624,0.758 -5.954608,0.76 -3.820063,0 -7.582749,-0.926 -10.967089,-2.698 -3.384341,-1.772 -6.289718,-4.338 -8.467502,-7.478 -2.652591,-3.718 -4.079502,-8.172 -4.080334,-12.74 0.0016,-1.285 0.113089,-2.567 0.332615,-3.833 0.509728,-2.816 1.597374,-5.495 3.196411,-7.867 1.598207,-2.373 3.67205,-4.387 6.089317,-5.914 l 29.792168,-18.99 c 1.869286,-1.19 3.908205,-2.09 6.04774,-2.667 1.945787,-0.499 3.945625,-0.75 5.953776,-0.75 3.82921,-0.01 7.603538,0.91 10.999519,2.681 3.395981,1.77 6.311338,4.34 8.497439,7.486 2.636787,3.727 4.045417,8.184 4.028777,12.75 a 15.748404,18.939 0 0 1 -0.33344,3.844 15.407475,18.529 0 0 1 -0.71845,2.781 l -0.56211,1.708 -1.519216,-1.114 c -3.525699,-2.595 -7.468833,-4.568 -11.658096,-5.834 l -1.104275,-0.343 0.103941,-1.105 v -0.572 c 0,-1.385 -0.429072,-2.735 -1.228174,-3.865 -0.65608,-0.945 -1.530022,-1.716 -2.549481,-2.25 a 8.3086779,9.992 0 0 0 -3.301186,-0.813 8.2213671,9.887 0 0 0 -1.768671,0.271 6.8185708,8.2 0 0 0 -1.831867,0.802 l -29.792165,18.99 a 5.8797701,7.071 0 0 0 -1.836857,1.79 4.7505482,5.713 0 0 0 -0.962914,2.377 5.0365955,6.057 0 0 0 -0.135541,1.104 c -8.31e-4,1.378 0.42824,2.722 1.228174,3.844 0.655248,0.945 1.530021,1.717 2.548649,2.25 a 8.2986996,9.98 0 0 0 3.301186,0.812 8.2471446,9.918 0 0 0 1.79029,-0.23 6.9433007,8.35 0 0 0 1.832699,-0.801 l 11.367057,-7.292 a 24.218399,29.125 0 0 1 6.04774,-2.656 28.52574,34.305 0 0 1 5.953776,-0.76 c 3.821727,0 7.586076,0.925 10.972078,2.697 3.386003,1.772 6.293877,4.339 8.473325,7.48 2.652591,3.717 4.079498,8.171 4.080338,12.74 0.003,1.299 -0.11226,2.596 -0.34343,3.874 -0.506403,2.817 -1.594046,5.497 -3.192254,7.87 -1.599037,2.372 -3.673715,4.385 -6.093476,5.911 l -29.739779,18.99 a 24.308205,29.233 0 0 1 -6.057719,2.667 z" fill="#ffffff" id="path600" style="stroke-width:0.911885"></path>
    </symbol>

    <symbol id="fastify" viewBox="0 0 128 128">
      <path d="m89.663 24.816-.162-.253-.001.001-.006.004a.513.513 0 0 1-.026.016l-.103.064a60.12 60.12 0 0 1-1.901 1.121 69.437 69.437 0 0 1-5.182 2.645c-4.196 1.919-9.503 3.791-14.045 3.691-2.294-.051-4.2-.242-5.997-.431l-.294-.031c-1.686-.178-3.294-.347-5.041-.384-3.707-.078-8.022.443-15.121 2.707-7.158 2.282-11.743 6.925-15.043 11.348-1.281 1.717-2.374 3.407-3.345 4.911-.278.43-.546.845-.806 1.241-1.18 1.797-2.17 3.17-3.143 3.876-2.054 1.489-6.299 4.657-10.029 7.45a4307.818 4307.818 0 0 0-4.874 3.656L3.03 67.586l-.415.313-.108.082-.028.021-.007.005-.002.001.134.178-.134-.177-.145.109.029.179.028.172.056.343.331-.105 10.46-3.331c-.395.422-.931 1.01-1.611 1.792-1.614 1.858-4.039 4.81-7.323 9.223a3.526 3.526 0 0 1-.071-.066l-.664-.611.167.886.012.064.011.059.033.05.073-.048-.073.048.001.002.003.005.012.019.048.072a24.262 24.262 0 0 0 .882 1.198 24.062 24.062 0 0 0 2.483 2.721c1.026.954 2.232 1.872 3.533 2.453 1.303.582 2.717.834 4.138.425h.001c.52-.152 1.094-.39 1.709-.697 2.15 1.181 4.939 2.332 8.02 2.654l.751.079-.492-.573-.001-.001-.004-.005a.245.245 0 0 0-.018-.02l-.068-.081a54.757 54.757 0 0 1-1.165-1.444 47.48 47.48 0 0 1-2.4-3.368l.833-.541 4.288 1.576.458.168-.057-.485-.436-3.716 3.933 1.445.471.173-.071-.497-.509-3.568c.485-.25.965-.487 1.445-.708l.131-.059.036-.137 4.498-17.014 17.815-12.152-1.125 2.83v.001c-1.875 4.61-4.568 7.452-6.786 9.141a16.783 16.783 0 0 1-2.813 1.747 11.248 11.248 0 0 1-1.059.449l-.056.019-.005.002a.069.069 0 0 0-.008.003l-.003.001-.009.003-.009.003-2.975 1.128-.073.026-.05.059-.345.405c-.926 1.084-1.643 1.923-2.202 3.389-.621 1.628-1.046 4.02-1.425 8.409l-.036.419.408-.103c1.753-.44 3.402-.539 4.879-.141 3.893 1.049 6.525 3.923 7.92 6.876.697 1.476 1.08 2.961 1.159 4.231.08 1.282-.152 2.293-.622 2.874-.509.629-1.733 1.721-3.318 3.035h-3.433l-.005.295-.042 2.487-.002.002-.138.107h-3.493l-.005.295-.038 2.422-.416.313-.252.19c-1.454.002-3.115-.618-4.447-1.268a21.133 21.133 0 0 1-2.146-1.211 4.868 4.868 0 0 1-.127-.084l-.032-.022-.006-.004-.001-.001-.002-.001-.47-.323v.571c0 1.295.534 2.905 1.048 4.164a27.627 27.627 0 0 0 .949 2.06l.002.003-.123.088.262.175.085.157.089-.042.024.016.277.175a31.893 31.893 0 0 0 4.483 2.301c1.378.569 2.931 1.078 4.477 1.314 1.544.236 3.102.201 4.476-.338 1.192-.467 2.838-1.417 4.781-2.632 1.336-.835 2.823-1.804 4.413-2.839.729-.475 1.479-.963 2.246-1.459 4.885-3.159 10.465-6.638 15.63-8.874l31.427-8.279.148-.039.055-.143 4.147-10.744.211-.547-.567.15-23.591 6.215V65.12l27.898-7.35.148-.039.055-.143 4.147-10.744.211-.547-.567.15L85.4 54.848v-9.032l36.183-9.534.148-.039.055-.143 3.863-10.004.035-.092-.026-.095-.168-.62-.078-.287-.288.076-37.453 9.868c1.73-2.73 2.328-5.184 2.48-7.005.082-.982.033-1.778-.037-2.332a7.645 7.645 0 0 0-.147-.814 2.191 2.191 0 0 0-.012-.046l-.004-.013-.001-.004v-.001l-.287.085zm0 0-.162-.253.336-.214.113.382-.287.085zm-.288.085c0-.001 0-.001 0 0zM64.657 56.695l7.017-1.85-2.232 5.783-7.017 1.85 2.232-5.783zm4.357 6.619-2.232 5.787-7.017 1.851 2.233-5.788 7.016-1.85zm10.077-2.163-2.232 5.787-7.017 1.851 2.233-5.788 7.016-1.85z"></path><path fill="#fff" d="M43.745 104.119a11.71 11.71 0 0 1-1.774-.142c-1.386-.211-2.916-.66-4.546-1.333a32.38 32.38 0 0 1-4.528-2.324l-.164-.103-.196.093-.184-.342-.562-.374.267-.19-.122-.246c-.179-.367-.45-.944-.721-1.609-.71-1.738-1.07-3.178-1.07-4.277V92.13l.978.673.124.082a20.545 20.545 0 0 0 2.114 1.193c1.133.553 2.773 1.21 4.216 1.237l.076-.057.095-.072.299-.224.045-2.866h3.631l.048-2.891h3.621c1.674-1.39 2.748-2.374 3.193-2.924.426-.527.628-1.5.556-2.667-.08-1.282-.481-2.746-1.131-4.121a13.298 13.298 0 0 0-2.956-4.06 11.313 11.313 0 0 0-4.772-2.655c-1.351-.364-2.897-.317-4.728.142l-.816.206.073-.839c.374-4.321.792-6.781 1.444-8.49.577-1.514 1.317-2.38 2.254-3.477l.089-.105.254-.299.101-.119.144-.055 2.994-1.135.031-.01.049-.016a11.163 11.163 0 0 0 1.026-.436 16.436 16.436 0 0 0 2.762-1.716 19.518 19.518 0 0 0 3.469-3.422c1.282-1.621 2.359-3.484 3.2-5.539v-.007l.024-.052.76-1.912-16.915 11.537-4.469 16.906-.072.274-.258.118c-.397.183-.805.381-1.243.604l.622 4.35-4.418-1.623.493 4.2-5.064-1.861-.456.296a47.135 47.135 0 0 0 2.222 3.095c.388.499.704.888.901 1.126.11.134.198.238.257.309l.073.086a.055.055 0 0 1 .007.009l.08.078v.016l.913 1.062-1.502-.158c-2.609-.273-5.298-1.153-7.996-2.615a10.37 10.37 0 0 1-1.593.639l-.027.008a.126.126 0 0 1-.01.003l-.03.009c-1.345.376-2.792.225-4.304-.45-1.175-.525-2.391-1.368-3.615-2.507a24.84 24.84 0 0 1-3.221-3.698l-.087-.124-.006.004-.159-.244-.052-.069v-.011l-.019-.028-.033-.181-.331-1.775 1.155 1.062c3.307-4.431 5.702-7.32 7.138-8.973.296-.34.581-.664.855-.968L2.86 68.992l-.663.21L2 67.987l.435-.327.193-.145.79-.594.948-.712c1.145-.86 2.92-2.192 4.874-3.656 3.399-2.546 7.899-5.905 10.033-7.453.912-.661 1.886-1.996 3.068-3.797.259-.395.528-.811.805-1.239.97-1.501 2.069-3.201 3.356-4.927 1.971-2.642 3.975-4.778 6.126-6.531a27.551 27.551 0 0 1 9.067-4.924c6.269-2 10.82-2.813 15.218-2.721 1.76.037 3.366.206 5.066.386l.294.031c1.957.206 3.757.38 5.972.429 2.044.045 4.421-.317 7.063-1.077 2.132-.613 4.437-1.484 6.851-2.587a70 70 0 0 0 5.159-2.633 56.431 56.431 0 0 0 1.962-1.16l.072-.046.66-.421.311 1.052-.015.004c.029.14.069.356.104.634.095.753.108 1.559.038 2.394-.182 2.191-.9 4.374-2.137 6.501l37.311-9.83.376 1.382-.07.183-3.973 10.291-.297.078-35.96 9.475v8.412l32.642-8.602-.422 1.095-4.257 11.03-.297.078-27.675 7.292v8.408l23.215-6.115 1.135-.299-.422 1.095-4.257 11.031-.297.078-31.404 8.273c-5.05 2.189-10.465 5.543-15.565 8.842-.732.473-1.45.941-2.145 1.394l-.124.081c-1.575 1.025-3.063 1.994-4.394 2.826-2.262 1.415-3.752 2.234-4.831 2.657-.844.33-1.8.496-2.857.496zM32.944 99.64l.271.171a31.78 31.78 0 0 0 4.439 2.278c1.586.655 3.068 1.091 4.407 1.295 1.674.255 3.128.147 4.321-.321 1.043-.409 2.502-1.213 4.732-2.607 1.327-.83 2.812-1.797 4.385-2.821l.124-.081a706.06 706.06 0 0 1 2.147-1.395c5.129-3.317 10.578-6.691 15.674-8.898l.021-.009.022-.006 31.427-8.279 4.146-10.744-23.967 6.314v-9.649l28.122-7.409 4.147-10.744L85.1 55.237v-9.653l36.407-9.593 3.863-10.004-.168-.619L87.01 35.43l.409-.645c1.423-2.245 2.242-4.556 2.434-6.869.082-.989.026-1.78-.036-2.269a7.475 7.475 0 0 0-.087-.538l-.2.059-.122-.19-.002-.003a.74.74 0 0 0-.043.027l-.034.196-.174-.026-.013-.035-.023.014c-.471.285-.978.581-1.508.88a70.134 70.134 0 0 1-5.204 2.657c-2.441 1.116-4.774 1.997-6.935 2.618-2.7.776-5.137 1.146-7.242 1.1-2.238-.049-4.051-.225-6.021-.432l-.294-.031c-1.687-.178-3.281-.346-5.016-.382-4.328-.091-8.821.714-15.023 2.693-3.268 1.042-6.17 2.618-8.87 4.818-2.112 1.721-4.083 3.822-6.024 6.424-1.276 1.71-2.369 3.401-3.333 4.894-.277.428-.547.846-.807 1.242-1.253 1.909-2.229 3.237-3.218 3.954-2.131 1.545-6.628 4.903-10.025 7.447a4106.538 4106.538 0 0 0-4.873 3.656l-.947.712-.79.594-.192.144-.142.106-.006-.008.03.184 11.557-3.68-.788.84a64.448 64.448 0 0 0-1.603 1.784c-1.459 1.679-3.911 4.638-7.309 9.205l-.198.266-.183-.167v.121l.122.174c.211.298.443.607.689.92.54.688 1.404 1.712 2.451 2.687 1.176 1.094 2.337 1.901 3.451 2.399 1.383.618 2.697.758 3.907.418l.038-.019h.028a10.45 10.45 0 0 0 1.619-.665l.14-.07.138.076c2.648 1.454 5.284 2.333 7.835 2.611v-.078l-.021-.025a49.146 49.146 0 0 1-1.172-1.454 47.155 47.155 0 0 1-2.416-3.39l-.162-.251.251-.162.832-.541.126-.082 4.43 1.628-.493-4.201 4.391 1.613-.54-3.779.19-.098c.518-.267.995-.5 1.457-.714l4.526-17.122 18.717-12.767-1.466 3.687v.009l-.025.053c-.865 2.126-1.977 4.056-3.305 5.734a20.08 20.08 0 0 1-3.576 3.528 17.156 17.156 0 0 1-2.864 1.778 11.676 11.676 0 0 1-1.091.463l-.061.021-.021.007-2.974 1.128-.255.3-.09.105c-.935 1.094-1.61 1.884-2.15 3.301-.63 1.654-1.038 4.067-1.407 8.328 1.932-.485 3.578-.531 5.03-.14a11.92 11.92 0 0 1 5.023 2.793 13.893 13.893 0 0 1 3.091 4.244c.682 1.443 1.103 2.984 1.187 4.34.083 1.334-.161 2.429-.688 3.081-.484.599-1.583 1.605-3.36 3.078l-.083.069H42.36l-.044 2.613-.123.118-.014.007-.02.015-.094.073-.082.064h-3.302l-.04 2.568-.116.088c-.14.106-.279.211-.418.314l-.095.072-.156.117-.08.061h-.107c-.874 0-2.374-.226-4.572-1.299a21.316 21.316 0 0 1-2.178-1.229 6.052 6.052 0 0 1-.131-.087l-.044-.029c0 1.007.355 2.408 1.026 4.05a26.393 26.393 0 0 0 .916 1.995l.006.006.021.047.089.177.009.006.003.006.101.063.029.019zm26.33-28.249 2.499-6.478 7.732-2.038-2.498 6.477-7.733 2.039zm2.948-5.976-1.966 5.097 6.302-1.662 1.966-5.096-6.302 1.661zm7.128 3.813 2.499-6.478 7.732-2.039-2.498 6.477-7.733 2.04zm2.949-5.976-1.966 5.097 6.302-1.662 1.966-5.096-6.302 1.661zm-10.366-.334 2.499-6.474 7.732-2.039-2.499 6.473-7.732 2.04zm2.948-5.972-1.966 5.092 6.302-1.662 1.965-5.092-6.301 1.662z"></path>
    </symbol>
    
    <symbol id="express" viewBox="0 0 128 128">
      <path d="M126.67 98.44c-4.56 1.16-7.38.05-9.91-3.75-5.68-8.51-11.95-16.63-18-24.9-.78-1.07-1.59-2.12-2.6-3.45C89 76 81.85 85.2 75.14 94.77c-2.4 3.42-4.92 4.91-9.4 3.7l26.92-36.13L67.6 29.71c4.31-.84 7.29-.41 9.93 3.45 5.83 8.52 12.26 16.63 18.67 25.21 6.45-8.55 12.8-16.67 18.8-25.11 2.41-3.42 5-4.72 9.33-3.46-3.28 4.35-6.49 8.63-9.72 12.88-4.36 5.73-8.64 11.53-13.16 17.14-1.61 2-1.35 3.3.09 5.19C109.9 76 118.16 87.1 126.67 98.44zM1.33 61.74c.72-3.61 1.2-7.29 2.2-10.83 6-21.43 30.6-30.34 47.5-17.06C60.93 41.64 63.39 52.62 62.9 65H7.1c-.84 22.21 15.15 35.62 35.53 28.78 7.15-2.4 11.36-8 13.47-15 1.07-3.51 2.84-4.06 6.14-3.06-1.69 8.76-5.52 16.08-13.52 20.66-12 6.86-29.13 4.64-38.14-4.89C5.26 85.89 3 78.92 2 71.39c-.15-1.2-.46-2.38-.7-3.57q.03-3.04.03-6.08zm5.87-1.49h50.43c-.33-16.06-10.33-27.47-24-27.57-15-.12-25.78 11.02-26.43 27.57z"></path>
    </symbol>

    <symbol id="postgresql" viewBox="0 0 128 128">
      <path d="M93.809 92.112c.785-6.533.55-7.492 5.416-6.433l1.235.108c3.742.17 8.637-.602 11.513-1.938 6.191-2.873 9.861-7.668 3.758-6.409-13.924 2.873-14.881-1.842-14.881-1.842 14.703-21.815 20.849-49.508 15.543-56.287-14.47-18.489-39.517-9.746-39.936-9.52l-.134.025c-2.751-.571-5.83-.912-9.289-.968-6.301-.104-11.082 1.652-14.709 4.402 0 0-44.683-18.409-42.604 23.151.442 8.841 12.672 66.898 27.26 49.362 5.332-6.412 10.484-11.834 10.484-11.834 2.558 1.699 5.622 2.567 8.834 2.255l.249-.212c-.078.796-.044 1.575.099 2.497-3.757 4.199-2.653 4.936-10.166 6.482-7.602 1.566-3.136 4.355-.221 5.084 3.535.884 11.712 2.136 17.238-5.598l-.22.882c1.474 1.18 1.375 8.477 1.583 13.69.209 5.214.558 10.079 1.621 12.948 1.063 2.868 2.317 10.256 12.191 8.14 8.252-1.764 14.561-4.309 15.136-27.985"></path><path d="M75.458 125.256c-4.367 0-7.211-1.689-8.938-3.32-2.607-2.46-3.641-5.629-4.259-7.522l-.267-.79c-1.244-3.358-1.666-8.193-1.916-14.419-.038-.935-.064-1.898-.093-2.919-.021-.747-.047-1.684-.085-2.664a18.8 18.8 0 01-4.962 1.568c-3.079.526-6.389.356-9.84-.507-2.435-.609-4.965-1.871-6.407-3.82-4.203 3.681-8.212 3.182-10.396 2.453-3.853-1.285-7.301-4.896-10.542-11.037-2.309-4.375-4.542-10.075-6.638-16.943-3.65-11.96-5.969-24.557-6.175-28.693C4.292 23.698 7.777 14.44 15.296 9.129 27.157.751 45.128 5.678 51.68 7.915c4.402-2.653 9.581-3.944 15.433-3.851 3.143.051 6.136.327 8.916.823 2.9-.912 8.628-2.221 15.185-2.139 12.081.144 22.092 4.852 28.949 13.615 4.894 6.252 2.474 19.381.597 26.651-2.642 10.226-7.271 21.102-12.957 30.57 1.544.011 3.781-.174 6.961-.831 6.274-1.295 8.109 2.069 8.607 3.575 1.995 6.042-6.677 10.608-9.382 11.864-3.466 1.609-9.117 2.589-13.745 2.377l-.202-.013-1.216-.107-.12 1.014-.116.991c-.311 11.999-2.025 19.598-5.552 24.619-3.697 5.264-8.835 6.739-13.361 7.709-1.544.33-2.947.474-4.219.474zm-9.19-43.671c2.819 2.256 3.066 6.501 3.287 14.434.028.99.054 1.927.089 2.802.106 2.65.355 8.855 1.327 11.477.137.371.26.747.39 1.146 1.083 3.316 1.626 4.979 6.309 3.978 3.931-.843 5.952-1.599 7.534-3.851 2.299-3.274 3.585-9.86 3.821-19.575l4.783.116-4.75-.57.14-1.186c.455-3.91.783-6.734 3.396-8.602 2.097-1.498 4.486-1.353 6.389-1.01-2.091-1.58-2.669-3.433-2.823-4.193l-.399-1.965 1.121-1.663c6.457-9.58 11.781-21.354 14.609-32.304 2.906-11.251 2.02-17.226 1.134-18.356-11.729-14.987-32.068-8.799-34.192-8.097l-.359.194-1.8.335-.922-.191c-2.542-.528-5.366-.82-8.393-.869-4.756-.08-8.593 1.044-11.739 3.431l-2.183 1.655-2.533-1.043c-5.412-2.213-21.308-6.662-29.696-.721-4.656 3.298-6.777 9.76-6.305 19.207.156 3.119 2.275 14.926 5.771 26.377 4.831 15.825 9.221 21.082 11.054 21.693.32.108 1.15-.537 1.976-1.529a270.708 270.708 0 0110.694-12.07l2.77-2.915 3.349 2.225c1.35.897 2.839 1.406 4.368 1.502l7.987-6.812-1.157 11.808c-.026.265-.039.626.065 1.296l.348 2.238-1.51 1.688-.174.196 4.388 2.025 1.836-2.301z"></path><path fill="#336791" d="M115.731 77.44c-13.925 2.873-14.882-1.842-14.882-1.842 14.703-21.816 20.849-49.51 15.545-56.287C101.924.823 76.875 9.566 76.457 9.793l-.135.024c-2.751-.571-5.83-.911-9.291-.967-6.301-.103-11.08 1.652-14.707 4.402 0 0-44.684-18.408-42.606 23.151.442 8.842 12.672 66.899 27.26 49.363 5.332-6.412 10.483-11.834 10.483-11.834 2.559 1.699 5.622 2.567 8.833 2.255l.25-.212c-.078.796-.042 1.575.1 2.497-3.758 4.199-2.654 4.936-10.167 6.482-7.602 1.566-3.136 4.355-.22 5.084 3.534.884 11.712 2.136 17.237-5.598l-.221.882c1.473 1.18 2.507 7.672 2.334 13.557-.174 5.885-.29 9.926.871 13.082 1.16 3.156 2.316 10.256 12.192 8.14 8.252-1.768 12.528-6.351 13.124-13.995.422-5.435 1.377-4.631 1.438-9.49l.767-2.3c.884-7.367.14-9.743 5.225-8.638l1.235.108c3.742.17 8.639-.602 11.514-1.938 6.19-2.871 9.861-7.667 3.758-6.408z"></path><path fill="#fff" d="M75.957 122.307c-8.232 0-10.84-6.519-11.907-9.185-1.562-3.907-1.899-19.069-1.551-31.503a1.59 1.59 0 011.64-1.55 1.594 1.594 0 011.55 1.639c-.401 14.341.168 27.337 1.324 30.229 1.804 4.509 4.54 8.453 12.275 6.796 7.343-1.575 10.093-4.359 11.318-11.46.94-5.449 2.799-20.951 3.028-24.01a1.593 1.593 0 011.71-1.472 1.597 1.597 0 011.472 1.71c-.239 3.185-2.089 18.657-3.065 24.315-1.446 8.387-5.185 12.191-13.794 14.037-1.463.313-2.792.453-4 .454zM31.321 90.466a6.71 6.71 0 01-2.116-.35c-5.347-1.784-10.44-10.492-15.138-25.885-3.576-11.717-5.842-23.947-6.041-27.922-.589-11.784 2.445-20.121 9.02-24.778 13.007-9.216 34.888-.44 35.813-.062a1.596 1.596 0 01-1.207 2.955c-.211-.086-21.193-8.492-32.768-.285-5.622 3.986-8.203 11.392-7.672 22.011.167 3.349 2.284 15.285 5.906 27.149 4.194 13.742 8.967 22.413 13.096 23.79.648.216 2.62.873 5.439-2.517A245.272 245.272 0 0145.88 73.046a1.596 1.596 0 012.304 2.208c-.048.05-4.847 5.067-10.077 11.359-2.477 2.979-4.851 3.853-6.786 3.853zm69.429-13.445a1.596 1.596 0 01-1.322-2.487c14.863-22.055 20.08-48.704 15.612-54.414-5.624-7.186-13.565-10.939-23.604-11.156-7.433-.16-13.341 1.738-14.307 2.069l-.243.099c-.971.305-1.716-.227-1.997-.849a1.6 1.6 0 01.631-2.025c.046-.027.192-.089.429-.176l-.021.006.021-.007c1.641-.601 7.639-2.4 15.068-2.315 11.108.118 20.284 4.401 26.534 12.388 2.957 3.779 2.964 12.485.019 23.887-3.002 11.625-8.651 24.118-15.497 34.277-.306.457-.81.703-1.323.703zm.76 10.21c-2.538 0-4.813-.358-6.175-1.174-1.4-.839-1.667-1.979-1.702-2.584-.382-6.71 3.32-7.878 5.208-8.411-.263-.398-.637-.866-1.024-1.349-1.101-1.376-2.609-3.26-3.771-6.078-.182-.44-.752-1.463-1.412-2.648-3.579-6.418-11.026-19.773-6.242-26.612 2.214-3.165 6.623-4.411 13.119-3.716C97.6 28.837 88.5 10.625 66.907 10.271c-6.494-.108-11.82 1.889-15.822 5.93-8.96 9.049-8.636 25.422-8.631 25.586a1.595 1.595 0 11-3.19.084c-.02-.727-.354-17.909 9.554-27.916C53.455 9.272 59.559 6.96 66.96 7.081c13.814.227 22.706 7.25 27.732 13.101 5.479 6.377 8.165 13.411 8.386 15.759.165 1.746-1.088 2.095-1.341 2.147l-.576.013c-6.375-1.021-10.465-.312-12.156 2.104-3.639 5.201 3.406 17.834 6.414 23.229.768 1.376 1.322 2.371 1.576 2.985.988 2.396 2.277 4.006 3.312 5.3.911 1.138 1.7 2.125 1.982 3.283.131.23 1.99 2.98 13.021.703 2.765-.57 4.423-.083 4.93 1.45.997 3.015-4.597 6.532-7.694 7.97-2.775 1.29-7.204 2.106-11.036 2.106zm-4.696-4.021c.35.353 2.101.962 5.727.806 3.224-.138 6.624-.839 8.664-1.786 2.609-1.212 4.351-2.567 5.253-3.492l-.5.092c-7.053 1.456-12.042 1.262-14.828-.577a6.162 6.162 0 01-.54-.401c-.302.119-.581.197-.78.253-1.58.443-3.214.902-2.996 5.105zm-45.562 8.915c-1.752 0-3.596-.239-5.479-.71-1.951-.488-5.24-1.957-5.19-4.37.057-2.707 3.994-3.519 5.476-3.824 5.354-1.103 5.703-1.545 7.376-3.67.488-.619 1.095-1.39 1.923-2.314 1.229-1.376 2.572-2.073 3.992-2.073.989 0 1.8.335 2.336.558 1.708.708 3.133 2.42 3.719 4.467.529 1.847.276 3.625-.71 5.006-3.237 4.533-7.886 6.93-13.443 6.93zm-7.222-4.943c.481.372 1.445.869 2.518 1.137 1.631.408 3.213.615 4.705.615 4.546 0 8.196-1.882 10.847-5.594.553-.774.387-1.757.239-2.274-.31-1.083-1.08-2.068-1.873-2.397-.43-.178-.787-.314-1.115-.314-.176 0-.712 0-1.614 1.009a41.146 41.146 0 00-1.794 2.162c-2.084 2.646-3.039 3.544-9.239 4.821-1.513.31-2.289.626-2.674.835zm12.269-7.36a1.596 1.596 0 01-1.575-1.354 8.218 8.218 0 01-.08-.799c-4.064-.076-7.985-1.82-10.962-4.926-3.764-3.927-5.477-9.368-4.699-14.927.845-6.037.529-11.366.359-14.229-.047-.796-.081-1.371-.079-1.769.003-.505.013-1.844 4.489-4.113 1.592-.807 4.784-2.215 8.271-2.576 5.777-.597 9.585 1.976 10.725 7.246 3.077 14.228.244 20.521-1.825 25.117-.385.856-.749 1.664-1.04 2.447l-.257.69c-1.093 2.931-2.038 5.463-1.748 7.354a1.595 1.595 0 01-1.335 1.819l-.244.02zM42.464 42.26l.062 1.139c.176 2.974.504 8.508-.384 14.86-.641 4.585.759 9.06 3.843 12.276 2.437 2.542 5.644 3.945 8.94 3.945h.068c.369-1.555.982-3.197 1.642-4.966l.255-.686c.329-.884.714-1.74 1.122-2.646 1.991-4.424 4.47-9.931 1.615-23.132-.565-2.615-1.936-4.128-4.189-4.627-4.628-1.022-11.525 2.459-12.974 3.837zm9.63-.677c-.08.564 1.033 2.07 2.485 2.271 1.449.203 2.689-.975 2.768-1.539.079-.564-1.033-1.186-2.485-1.388-1.451-.202-2.691.092-2.768.656zm2.818 2.826l-.407-.028c-.9-.125-1.81-.692-2.433-1.518-.219-.29-.576-.852-.505-1.354.101-.736.999-1.177 2.4-1.177.313 0 .639.023.967.069.766.106 1.477.327 2.002.62.91.508.977 1.075.936 1.368-.112.813-1.405 2.02-2.96 2.02zm-2.289-2.732c.045.348.907 1.496 2.029 1.651l.261.018c1.036 0 1.81-.815 1.901-1.082-.096-.182-.762-.634-2.025-.81a5.823 5.823 0 00-.821-.059c-.812 0-1.243.183-1.345.282zm43.605-1.245c.079.564-1.033 2.07-2.484 2.272-1.45.202-2.691-.975-2.771-1.539-.076-.564 1.036-1.187 2.486-1.388 1.45-.203 2.689.092 2.769.655zm-2.819 2.56c-1.396 0-2.601-1.086-2.7-1.791-.115-.846 1.278-1.489 2.712-1.688.316-.044.629-.066.93-.066 1.238 0 2.058.363 2.14.949.053.379-.238.964-.739 1.492-.331.347-1.026.948-1.973 1.079l-.37.025zm.943-3.013c-.276 0-.564.021-.856.061-1.441.201-2.301.779-2.259 1.089.048.341.968 1.332 2.173 1.332l.297-.021c.787-.109 1.378-.623 1.66-.919.443-.465.619-.903.598-1.052-.028-.198-.56-.49-1.613-.49zm3.965 32.843a1.594 1.594 0 01-1.324-2.483c3.398-5.075 2.776-10.25 2.175-15.255-.257-2.132-.521-4.337-.453-6.453.07-2.177.347-3.973.614-5.71.317-2.058.617-4.002.493-6.31a1.595 1.595 0 113.186-.172c.142 2.638-.197 4.838-.525 6.967-.253 1.643-.515 3.342-.578 5.327-.061 1.874.178 3.864.431 5.97.64 5.322 1.365 11.354-2.691 17.411a1.596 1.596 0 01-1.328.708z"></path>
    </symbol>

    <symbol id="redis" viewBox="0 0 128 128">
      <path fill="#A41E11" d="M121.8 93.1c-6.7 3.5-41.4 17.7-48.8 21.6-7.4 3.9-11.5 3.8-17.3 1S13 98.1 6.3 94.9c-3.3-1.6-5-2.9-5-4.2V78s48-10.5 55.8-13.2c7.8-2.8 10.4-2.9 17-.5s46.1 9.5 52.6 11.9v12.5c0 1.3-1.5 2.7-4.9 4.4z"></path><path fill="#D82C20" d="M121.8 80.5C115.1 84 80.4 98.2 73 102.1c-7.4 3.9-11.5 3.8-17.3 1-5.8-2.8-42.7-17.7-49.4-20.9C-.3 79-.5 76.8 6 74.3c6.5-2.6 43.2-17 51-19.7 7.8-2.8 10.4-2.9 17-.5s41.1 16.1 47.6 18.5c6.7 2.4 6.9 4.4.2 7.9z"></path><path fill="#A41E11" d="M121.8 72.5C115.1 76 80.4 90.2 73 94.1c-7.4 3.8-11.5 3.8-17.3 1C49.9 92.3 13 77.4 6.3 74.2c-3.3-1.6-5-2.9-5-4.2V57.3s48-10.5 55.8-13.2c7.8-2.8 10.4-2.9 17-.5s46.1 9.5 52.6 11.9V68c0 1.3-1.5 2.7-4.9 4.5z"></path><path fill="#D82C20" d="M121.8 59.8c-6.7 3.5-41.4 17.7-48.8 21.6-7.4 3.8-11.5 3.8-17.3 1C49.9 79.6 13 64.7 6.3 61.5s-6.8-5.4-.3-7.9c6.5-2.6 43.2-17 51-19.7 7.8-2.8 10.4-2.9 17-.5s41.1 16.1 47.6 18.5c6.7 2.4 6.9 4.4.2 7.9z"></path><path fill="#A41E11" d="M121.8 51c-6.7 3.5-41.4 17.7-48.8 21.6-7.4 3.8-11.5 3.8-17.3 1C49.9 70.9 13 56 6.3 52.8c-3.3-1.6-5.1-2.9-5.1-4.2V35.9s48-10.5 55.8-13.2c7.8-2.8 10.4-2.9 17-.5s46.1 9.5 52.6 11.9v12.5c.1 1.3-1.4 2.6-4.8 4.4z"></path><path fill="#D82C20" d="M121.8 38.3C115.1 41.8 80.4 56 73 59.9c-7.4 3.8-11.5 3.8-17.3 1S13 43.3 6.3 40.1s-6.8-5.4-.3-7.9c6.5-2.6 43.2-17 51-19.7 7.8-2.8 10.4-2.9 17-.5s41.1 16.1 47.6 18.5c6.7 2.4 6.9 4.4.2 7.8z"></path><path fill="#fff" d="M80.4 26.1l-10.8 1.2-2.5 5.8-3.9-6.5-12.5-1.1 9.3-3.4-2.8-5.2 8.8 3.4 8.2-2.7L72 23zM66.5 54.5l-20.3-8.4 29.1-4.4z"></path><ellipse fill="#fff" cx="38.4" cy="35.4" rx="15.5" ry="6"></ellipse><path fill="#7A0C00" d="M93.3 27.7l17.2 6.8-17.2 6.8z"></path><path fill="#AD2115" d="M74.3 35.3l19-7.6v13.6l-1.9.8z"></path>
    </symbol>

    <symbol id="mysql" viewBox="0 0 128 128">
      <path fill="#00618A" d="M117.688 98.242c-6.973-.191-12.297.461-16.852 2.379-1.293.547-3.355.559-3.566 2.18.711.746.82 1.859 1.387 2.777 1.086 1.754 2.922 4.113 4.559 5.352 1.789 1.348 3.633 2.793 5.551 3.961 3.414 2.082 7.223 3.27 10.504 5.352 1.938 1.23 3.859 2.777 5.75 4.164.934.684 1.563 1.75 2.773 2.18v-.195c-.637-.812-.801-1.93-1.387-2.777l-2.578-2.578c-2.52-3.344-5.719-6.281-9.117-8.719-2.711-1.949-8.781-4.578-9.91-7.73l-.199-.199c1.922-.219 4.172-.914 5.949-1.391 2.98-.797 5.645-.59 8.719-1.387l4.164-1.187v-.793c-1.555-1.594-2.664-3.707-4.359-5.152-4.441-3.781-9.285-7.555-14.273-10.703-2.766-1.746-6.184-2.883-9.117-4.363-.988-.496-2.719-.758-3.371-1.586-1.539-1.961-2.379-4.449-3.566-6.738-2.488-4.793-4.93-10.023-7.137-15.066-1.504-3.437-2.484-6.828-4.359-9.91-9-14.797-18.687-23.73-33.695-32.508-3.195-1.867-7.039-2.605-11.102-3.57l-6.543-.395c-1.332-.555-2.715-2.184-3.965-2.977C16.977 3.52 4.223-3.312.539 5.672-1.785 11.34 4.016 16.871 6.09 19.746c1.457 2.012 3.32 4.273 4.359 6.539.688 1.492.805 2.984 1.391 4.559 1.438 3.883 2.695 8.109 4.559 11.695.941 1.816 1.98 3.727 3.172 5.352.727.996 1.98 1.438 2.18 2.973-1.227 1.715-1.297 4.375-1.984 6.543-3.098 9.77-1.926 21.91 2.578 29.137 1.383 2.223 4.641 6.98 9.117 5.156 3.918-1.598 3.043-6.539 4.164-10.902.254-.988.098-1.715.594-2.379v.199l3.57 7.133c2.641 4.254 7.324 8.699 11.297 11.699 2.059 1.555 3.68 4.242 6.344 5.152v-.199h-.199c-.516-.805-1.324-1.137-1.98-1.781-1.551-1.523-3.277-3.414-4.559-5.156-3.613-4.902-6.805-10.27-9.711-15.855-1.391-2.668-2.598-5.609-3.77-8.324-.453-1.047-.445-2.633-1.387-3.172-1.281 1.988-3.172 3.598-4.164 5.945-1.582 3.754-1.789 8.336-2.375 13.082-.348.125-.195.039-.398.199-2.762-.668-3.73-3.508-4.758-5.949-2.594-6.164-3.078-16.09-.793-23.191.59-1.836 3.262-7.617 2.18-9.316-.516-1.691-2.219-2.672-3.172-3.965-1.18-1.598-2.355-3.703-3.172-5.551-2.125-4.805-3.113-10.203-5.352-15.062-1.07-2.324-2.875-4.676-4.359-6.738-1.645-2.289-3.484-3.977-4.758-6.742-.453-.984-1.066-2.559-.398-3.566.215-.684.516-.969 1.191-1.191 1.148-.887 4.352.297 5.547.793 3.18 1.32 5.832 2.578 8.527 4.363 1.289.855 2.598 2.512 4.16 2.973h1.785c2.789.641 5.914.195 8.523.988 4.609 1.402 8.738 3.582 12.488 5.949 11.422 7.215 20.766 17.48 27.156 29.734 1.027 1.973 1.473 3.852 2.379 5.945 1.824 4.219 4.125 8.559 5.941 12.688 1.816 4.113 3.582 8.27 6.148 11.695 1.348 1.801 6.551 2.766 8.918 3.766 1.66.699 4.379 1.43 5.949 2.379 3 1.809 5.906 3.965 8.723 5.945 1.402.992 5.73 3.168 5.945 4.957zm-88.605-75.52c-1.453-.027-2.48.156-3.566.395v.199h.195c.695 1.422 1.918 2.34 2.777 3.566l1.98 4.164.199-.195c1.227-.867 1.789-2.25 1.781-4.363-.492-.52-.562-1.164-.992-1.785-.562-.824-1.66-1.289-2.375-1.98zm0 0"></path>
    </symbol>

    <symbol id="sqlite" viewBox="0 0 128 128">
      <defs><linearGradient id="sqlite-original-a" x1="-15.615" x2="-6.741" y1="-9.108" y2="-9.108" gradientTransform="rotate(90 -90.486 64.634) scale(9.2712)" gradientUnits="userSpaceOnUse"><stop stop-color="#95d7f4" offset="0"></stop><stop stop-color="#0f7fcc" offset=".92"></stop><stop stop-color="#0f7fcc" offset="1"></stop></linearGradient></defs><path d="M69.5 99.176c-.059-.73-.094-1.2-.094-1.2S67.2 83.087 64.57 78.642c-.414-.707.043-3.594 1.207-7.88.68 1.169 3.54 6.192 4.118 7.81.648 1.824.78 2.347.78 2.347s-1.57-8.082-4.144-12.797a162.286 162.286 0 012.004-6.265c.973 1.71 3.313 5.859 3.828 7.3.102.293.192.543.27.774.023-.137.05-.274.074-.414-.59-2.504-1.75-6.86-3.336-10.082 3.52-18.328 15.531-42.824 27.84-53.754H16.9c-5.387 0-9.789 4.406-9.789 9.789v88.57c0 5.383 4.406 9.789 9.79 9.789h52.897a118.657 118.657 0 01-.297-14.652" fill="#0b7fcc"></path><path d="M65.777 70.762c.68 1.168 3.54 6.188 4.117 7.809.649 1.824.781 2.347.781 2.347s-1.57-8.082-4.144-12.797a164.535 164.535 0 012.004-6.27c.887 1.567 2.922 5.169 3.652 6.872l.082-.961c-.648-2.496-1.633-5.766-2.898-8.328 3.242-16.871 13.68-38.97 24.926-50.898H16.899a6.94 6.94 0 00-6.934 6.933v82.11c17.527-6.731 38.664-12.88 56.855-12.614-.672-2.605-1.441-4.96-2.25-6.324-.414-.707.043-3.597 1.207-7.879" fill="url(#sqlite-original-a)"></path><path d="M115.95 2.781c-5.5-4.906-12.164-2.933-18.734 2.899a44.347 44.347 0 00-2.914 2.859c-11.25 11.926-21.684 34.023-24.926 50.895 1.262 2.563 2.25 5.832 2.894 8.328.168.64.32 1.242.442 1.754.285 1.207.437 1.996.437 1.996s-.101-.383-.515-1.582c-.078-.23-.168-.484-.27-.773-.043-.125-.105-.274-.172-.434-.734-1.703-2.765-5.305-3.656-6.867-.762 2.25-1.437 4.36-2.004 6.265 2.578 4.715 4.149 12.797 4.149 12.797s-.137-.523-.782-2.347c-.578-1.621-3.441-6.64-4.117-7.809-1.164 4.281-1.625 7.172-1.207 7.88.809 1.362 1.574 3.722 2.25 6.323 1.524 5.867 2.586 13.012 2.586 13.012s.031.469.094 1.2a118.653 118.653 0 00.297 14.651c.504 6.11 1.453 11.363 2.664 14.172l.828-.449c-1.781-5.535-2.504-12.793-2.188-21.156.48-12.793 3.422-28.215 8.856-44.289 9.191-24.27 21.938-43.738 33.602-53.035-10.633 9.602-25.023 40.684-29.332 52.195-4.82 12.891-8.238 24.984-10.301 36.574 3.55-10.863 15.047-15.53 15.047-15.53s5.637-6.958 12.227-16.888c-3.95.903-10.43 2.442-12.598 3.352-3.2 1.344-4.067 1.8-4.067 1.8s10.371-6.312 19.27-9.171c12.234-19.27 25.562-46.648 12.141-58.621" fill="#003956"></path>
    </symbol>

    <symbol id="mongodb" viewBox="0 0 128 128">
      <path fill-rule="evenodd" clip-rule="evenodd" fill="#439934" d="M88.038 42.812c1.605 4.643 2.761 9.383 3.141 14.296.472 6.095.256 12.147-1.029 18.142-.035.165-.109.32-.164.48-.403.001-.814-.049-1.208.012-3.329.523-6.655 1.065-9.981 1.604-3.438.557-6.881 1.092-10.313 1.687-1.216.21-2.721-.041-3.212 1.641-.014.046-.154.054-.235.08l.166-10.051-.169-24.252 1.602-.275c2.62-.429 5.24-.864 7.862-1.281 3.129-.497 6.261-.98 9.392-1.465 1.381-.215 2.764-.412 4.148-.618z"></path><path fill-rule="evenodd" clip-rule="evenodd" fill="#45A538" d="M61.729 110.054c-1.69-1.453-3.439-2.842-5.059-4.37-8.717-8.222-15.093-17.899-18.233-29.566-.865-3.211-1.442-6.474-1.627-9.792-.13-2.322-.318-4.665-.154-6.975.437-6.144 1.325-12.229 3.127-18.147l.099-.138c.175.233.427.439.516.702 1.759 5.18 3.505 10.364 5.242 15.551 5.458 16.3 10.909 32.604 16.376 48.9.107.318.384.579.583.866l-.87 2.969z"></path><path fill-rule="evenodd" clip-rule="evenodd" fill="#46A037" d="M88.038 42.812c-1.384.206-2.768.403-4.149.616-3.131.485-6.263.968-9.392 1.465-2.622.417-5.242.852-7.862 1.281l-1.602.275-.012-1.045c-.053-.859-.144-1.717-.154-2.576-.069-5.478-.112-10.956-.18-16.434-.042-3.429-.105-6.857-.175-10.285-.043-2.13-.089-4.261-.185-6.388-.052-1.143-.236-2.28-.311-3.423-.042-.657.016-1.319.029-1.979.817 1.583 1.616 3.178 2.456 4.749 1.327 2.484 3.441 4.314 5.344 6.311 7.523 7.892 12.864 17.068 16.193 27.433z"></path><path fill-rule="evenodd" clip-rule="evenodd" fill="#409433" d="M65.036 80.753c.081-.026.222-.034.235-.08.491-1.682 1.996-1.431 3.212-1.641 3.432-.594 6.875-1.13 10.313-1.687 3.326-.539 6.652-1.081 9.981-1.604.394-.062.805-.011 1.208-.012-.622 2.22-1.112 4.488-1.901 6.647-.896 2.449-1.98 4.839-3.131 7.182a49.142 49.142 0 01-6.353 9.763c-1.919 2.308-4.058 4.441-6.202 6.548-1.185 1.165-2.582 2.114-3.882 3.161l-.337-.23-1.214-1.038-1.256-2.753a41.402 41.402 0 01-1.394-9.838l.023-.561.171-2.426c.057-.828.133-1.655.168-2.485.129-2.982.241-5.964.359-8.946z"></path><path fill-rule="evenodd" clip-rule="evenodd" fill="#4FAA41" d="M65.036 80.753c-.118 2.982-.23 5.964-.357 8.947-.035.83-.111 1.657-.168 2.485l-.765.289c-1.699-5.002-3.399-9.951-5.062-14.913-2.75-8.209-5.467-16.431-8.213-24.642a4498.887 4498.887 0 00-6.7-19.867c-.105-.31-.407-.552-.617-.826l4.896-9.002c.168.292.39.565.496.879a6167.476 6167.476 0 016.768 20.118c2.916 8.73 5.814 17.467 8.728 26.198.116.349.308.671.491 1.062l.67-.78-.167 10.052z"></path><path fill-rule="evenodd" clip-rule="evenodd" fill="#4AA73C" d="M43.155 32.227c.21.274.511.516.617.826a4498.887 4498.887 0 016.7 19.867c2.746 8.211 5.463 16.433 8.213 24.642 1.662 4.961 3.362 9.911 5.062 14.913l.765-.289-.171 2.426-.155.559c-.266 2.656-.49 5.318-.814 7.968-.163 1.328-.509 2.632-.772 3.947-.198-.287-.476-.548-.583-.866-5.467-16.297-10.918-32.6-16.376-48.9a3888.972 3888.972 0 00-5.242-15.551c-.089-.263-.34-.469-.516-.702l3.272-8.84z"></path><path fill-rule="evenodd" clip-rule="evenodd" fill="#57AE47" d="M65.202 70.702l-.67.78c-.183-.391-.375-.714-.491-1.062-2.913-8.731-5.812-17.468-8.728-26.198a6167.476 6167.476 0 00-6.768-20.118c-.105-.314-.327-.588-.496-.879l6.055-7.965c.191.255.463.482.562.769 1.681 4.921 3.347 9.848 5.003 14.778 1.547 4.604 3.071 9.215 4.636 13.813.105.308.47.526.714.786l.012 1.045c.058 8.082.115 16.167.171 24.251z"></path><path fill-rule="evenodd" clip-rule="evenodd" fill="#60B24F" d="M65.021 45.404c-.244-.26-.609-.478-.714-.786-1.565-4.598-3.089-9.209-4.636-13.813-1.656-4.93-3.322-9.856-5.003-14.778-.099-.287-.371-.514-.562-.769 1.969-1.928 3.877-3.925 5.925-5.764 1.821-1.634 3.285-3.386 3.352-5.968.003-.107.059-.214.145-.514l.519 1.306c-.013.661-.072 1.322-.029 1.979.075 1.143.259 2.28.311 3.423.096 2.127.142 4.258.185 6.388.069 3.428.132 6.856.175 10.285.067 5.478.111 10.956.18 16.434.008.861.098 1.718.152 2.577z"></path><path fill-rule="evenodd" clip-rule="evenodd" fill="#A9AA88" d="M62.598 107.085c.263-1.315.609-2.62.772-3.947.325-2.649.548-5.312.814-7.968l.066-.01.066.011a41.402 41.402 0 001.394 9.838c-.176.232-.425.439-.518.701-.727 2.05-1.412 4.116-2.143 6.166-.1.28-.378.498-.574.744l-.747-2.566.87-2.969z"></path><path fill-rule="evenodd" clip-rule="evenodd" fill="#B6B598" d="M62.476 112.621c.196-.246.475-.464.574-.744.731-2.05 1.417-4.115 2.143-6.166.093-.262.341-.469.518-.701l1.255 2.754c-.248.352-.59.669-.728 1.061l-2.404 7.059c-.099.283-.437.483-.663.722l-.695-3.985z"></path><path fill-rule="evenodd" clip-rule="evenodd" fill="#C2C1A7" d="M63.171 116.605c.227-.238.564-.439.663-.722l2.404-7.059c.137-.391.48-.709.728-1.061l1.215 1.037c-.587.58-.913 1.25-.717 2.097l-.369 1.208c-.168.207-.411.387-.494.624-.839 2.403-1.64 4.819-2.485 7.222-.107.305-.404.544-.614.812-.109-1.387-.22-2.771-.331-4.158z"></path><path fill-rule="evenodd" clip-rule="evenodd" fill="#CECDB7" d="M63.503 120.763c.209-.269.506-.508.614-.812.845-2.402 1.646-4.818 2.485-7.222.083-.236.325-.417.494-.624l-.509 5.545c-.136.157-.333.294-.398.477-.575 1.614-1.117 3.24-1.694 4.854-.119.333-.347.627-.525.938-.158-.207-.441-.407-.454-.623-.051-.841-.016-1.688-.013-2.533z"></path><path fill-rule="evenodd" clip-rule="evenodd" fill="#DBDAC7" d="M63.969 123.919c.178-.312.406-.606.525-.938.578-1.613 1.119-3.239 1.694-4.854.065-.183.263-.319.398-.477l.012 3.64-1.218 3.124-1.411-.495z"></path><path fill-rule="evenodd" clip-rule="evenodd" fill="#EBE9DC" d="M65.38 124.415l1.218-3.124.251 3.696-1.469-.572z"></path><path fill-rule="evenodd" clip-rule="evenodd" fill="#CECDB7" d="M67.464 110.898c-.196-.847.129-1.518.717-2.097l.337.23-1.054 1.867z"></path><path fill-rule="evenodd" clip-rule="evenodd" fill="#4FAA41" d="M64.316 95.172l-.066-.011-.066.01.155-.559-.023.56z"></path>
    </symbol>
          
    <symbol id="html" viewBox="0 0 128 128">
      <path fill="#E44D26" d="M19.037 113.876L9.032 1.661h109.936l-10.016 112.198-45.019 12.48z"></path><path fill="#F16529" d="M64 116.8l36.378-10.086 8.559-95.878H64z"></path><path fill="#EBEBEB" d="M64 52.455H45.788L44.53 38.361H64V24.599H29.489l.33 3.692 3.382 37.927H64zm0 35.743l-.061.017-15.327-4.14-.979-10.975H33.816l1.928 21.609 28.193 7.826.063-.017z"></path><path fill="#fff" d="M63.952 52.455v13.763h16.947l-1.597 17.849-15.35 4.143v14.319l28.215-7.82.207-2.325 3.234-36.233.335-3.696h-3.708zm0-27.856v13.762h33.244l.276-3.092.628-6.978.329-3.692z"></path>
    </symbol>

    <symbol id="css" viewBox="0 0 128 128">
      <path fill="#1572B6" d="M18.814 114.123L8.76 1.352h110.48l-10.064 112.754-45.243 12.543-45.119-12.526z"></path><path fill="#33A9DC" d="M64.001 117.062l36.559-10.136 8.601-96.354h-45.16v106.49z"></path><path fill="#fff" d="M64.001 51.429h18.302l1.264-14.163H64.001V23.435h34.682l-.332 3.711-3.4 38.114h-30.95V51.429z"></path><path fill="#EBEBEB" d="M64.083 87.349l-.061.018-15.403-4.159-.985-11.031H33.752l1.937 21.717 28.331 7.863.063-.018v-14.39z"></path><path fill="#fff" d="M81.127 64.675l-1.666 18.522-15.426 4.164v14.39l28.354-7.858.208-2.337 2.406-26.881H81.127z"></path><path fill="#EBEBEB" d="M64.048 23.435v13.831H30.64l-.277-3.108-.63-7.012-.331-3.711h34.646zm-.047 27.996v13.831H48.792l-.277-3.108-.631-7.012-.33-3.711h16.447z"></path>
    </symbol>    

    <symbol id="js" viewBox="0 0 630 630">
      <rect width="630" height="630" fill="#f7df1e"/>
      <path fill="black" d="m423.2 492.19c12.69 20.72 29.2 35.95 58.4 35.95 24.53 0 40.2-12.26 40.2-29.2 0-20.3-16.1-27.49-43.1-39.3l-14.8-6.35c-42.72-18.2-71.1-41-71.1-89.2 0-44.4 33.83-78.2 86.7-78.2 37.64 0 64.7 13.1 84.2 47.4l-46.1 29.6c-10.15-18.2-21.1-25.37-38.1-25.37-17.34 0-28.33 11-28.33 25.37 0 17.76 11 24.95 36.4 35.95l14.8 6.34c50.3 21.57 78.7 43.56 78.7 93 0 53.3-41.87 82.5-98.1 82.5-54.98 0-90.5-26.2-107.88-60.54zm-209.13 5.13c9.3 16.5 17.76 30.45 38.1 30.45 19.45 0 31.72-7.61 31.72-37.2v-201.3h59.2v202.1c0 61.3-35.94 89.2-88.4 89.2-47.4 0-74.85-24.53-88.81-54.075z"/>
    </symbol>

    <symbol id="tailwind" viewBox="0 0 47 40" fill="none">
      <path fill="#6366f1" d="M23.5 6.5C17.5 6.5 13.75 9.5 12.25 15.5C14.5 12.5 17.125 11.375 20.125 12.125C21.8367 12.5529 23.0601 13.7947 24.4142 15.1692C26.6202 17.4084 29.1734 20 34.75 20C40.75 20 44.5 17 46 11C43.75 14 41.125 15.125 38.125 14.375C36.4133 13.9471 35.1899 12.7053 33.8357 11.3308C31.6297 9.09158 29.0766 6.5 23.5 6.5ZM12.25 20C6.25 20 2.5 23 1 29C3.25 26 5.875 24.875 8.875 25.625C10.5867 26.0529 11.8101 27.2947 13.1642 28.6693C15.3702 30.9084 17.9234 33.5 23.5 33.5C29.5 33.5 33.25 30.5 34.75 24.5C32.5 27.5 29.875 28.625 26.875 27.875C25.1633 27.4471 23.9399 26.2053 22.5858 24.8307C20.3798 22.5916 17.8266 20 12.25 20Z"/>
    </symbol>

    <symbol id="contact" viewBox="0 0 512 512">
      <path d="M48 64C21.5 64 0 85.5 0 112c0 15.1 7.1 29.3 19.2 38.4L236.8 313.6c11.4 8.5 27 8.5 38.4 0L492.8 150.4c12.1-9.1 19.2-23.3 19.2-38.4c0-26.5-21.5-48-48-48H48zM0 176V384c0 35.3 28.7 64 64 64H448c35.3 0 64-28.7 64-64V176L294.4 339.2c-22.8 17.1-54 17.1-76.8 0L0 176z"/>
    </symbol>

    <symbol id="docker" viewBox="0 0 128 128">
      <path fill-rule="evenodd" clip-rule="evenodd" fill="#3A4D54" d="M73.8 50.8h11.3v11.5h5.7c2.6 0 5.3-.5 7.8-1.3 1.2-.4 2.6-1 3.8-1.7-1.6-2.1-2.4-4.7-2.6-7.3-.3-3.5.4-8.1 2.8-10.8l1.2-1.4 1.4 1.1c3.6 2.9 6.5 6.8 7.1 11.4 4.3-1.3 9.3-1 13.1 1.2l1.5.9-.8 1.6c-3.2 6.2-9.9 8.2-16.4 7.8-9.8 24.3-31 35.8-56.8 35.8-13.3 0-25.5-5-32.5-16.8l-.1-.2-1-2.1c-2.4-5.2-3.1-10.9-2.6-16.6l.2-1.7h9.6V50.8h11.3V39.6h22.5V28.3h13.5v22.5z"></path><path fill="#00AADA" d="M110.4 55.1c.8-5.9-3.6-10.5-6.4-12.7-3.1 3.6-3.6 13.2 1.3 17.2-2.8 2.4-8.5 4.7-14.5 4.7H18.6c-.6 6.2.5 11.9 3 16.8l.8 1.5c.5.9 1.1 1.7 1.7 2.6 3 .2 5.7.3 8.2.2 4.9-.1 8.9-.7 12-1.7.5-.2.9.1 1.1.5.2.5-.1.9-.5 1.1-.4.1-.8.3-1.3.4-2.4.7-5 1.1-8.3 1.3h-.6c-1.3.1-2.7.1-4.2.1-1.6 0-3.1 0-4.9-.1 6 6.8 15.4 10.8 27.2 10.8 25 0 46.2-11.1 55.5-35.9 6.7.7 13.1-1 16-6.7-4.5-2.7-10.5-1.8-13.9-.1z"></path><path fill="#28B8EB" d="M110.4 55.1c.8-5.9-3.6-10.5-6.4-12.7-3.1 3.6-3.6 13.2 1.3 17.2-2.8 2.4-8.5 4.7-14.5 4.7h-68c-.3 9.5 3.2 16.7 9.5 21 4.9-.1 8.9-.7 12-1.7.5-.2.9.1 1.1.5.2.5-.1.9-.5 1.1-.4.1-.8.3-1.3.4-2.4.7-5.2 1.2-8.5 1.4l-.1-.1c8.5 4.4 20.8 4.3 35-1.1 15.8-6.1 30.6-17.7 40.9-30.9-.2.1-.4.1-.5.2z"></path><path fill="#028BB8" d="M18.7 71.8c.4 3.3 1.4 6.4 2.9 9.3l.8 1.5c.5.9 1.1 1.7 1.7 2.6 3 .2 5.7.3 8.2.2 4.9-.1 8.9-.7 12-1.7.5-.2.9.1 1.1.5.2.5-.1.9-.5 1.1-.4.1-.8.3-1.3.4-2.4.7-5.2 1.2-8.5 1.4h-.4c-1.3.1-2.7.1-4.1.1-1.6 0-3.2 0-4.9-.1 6 6.8 15.5 10.8 27.3 10.8 21.4 0 40-8.1 50.8-26H18.7v-.1z"></path><path fill="#019BC6" d="M23.5 71.8c1.3 5.8 4.3 10.4 8.8 13.5 4.9-.1 8.9-.7 12-1.7.5-.2.9.1 1.1.5.2.5-.1.9-.5 1.1-.4.1-.8.3-1.3.4-2.4.7-5.2 1.2-8.6 1.4 8.5 4.4 20.8 4.3 34.9-1.1 8.5-3.3 16.8-8.2 24.2-14.1H23.5z"></path><path fill-rule="evenodd" clip-rule="evenodd" fill="#00ACD3" d="M28.4 52.7h9.8v9.8h-9.8v-9.8zm.8.8h.8v8.1h-.8v-8.1zm1.4 0h.8v8.1h-.8v-8.1zm1.5 0h.8v8.1h-.8v-8.1zm1.5 0h.8v8.1h-.8v-8.1zm1.5 0h.8v8.1h-.8v-8.1zm1.5 0h.8v8.1h-.8v-8.1zm3-12h9.8v9.8h-9.8v-9.8zm.9.8h.8v8.1h-.8v-8.1zm1.4 0h.8v8.1h-.8v-8.1zm1.5 0h.8v8.1h-.8v-8.1zm1.5 0h.8v8.1h-.8v-8.1zm1.4 0h.8v8.1h-.8v-8.1zm1.5 0h.8v8.1h-.8v-8.1z"></path><path fill-rule="evenodd" clip-rule="evenodd" fill="#23C2EE" d="M39.6 52.7h9.8v9.8h-9.8v-9.8zm.9.8h.8v8.1h-.8v-8.1zm1.4 0h.8v8.1h-.8v-8.1zm1.5 0h.8v8.1h-.8v-8.1zm1.5 0h.8v8.1h-.8v-8.1zm1.4 0h.8v8.1h-.8v-8.1zm1.5 0h.8v8.1h-.8v-8.1z"></path><path fill-rule="evenodd" clip-rule="evenodd" fill="#00ACD3" d="M50.9 52.7h9.8v9.8h-9.8v-9.8zm.8.8h.8v8.1h-.8v-8.1zm1.5 0h.8v8.1h-.8v-8.1zm1.5 0h.8v8.1h-.8v-8.1zm1.4 0h.8v8.1h-.8v-8.1zm1.5 0h.8v8.1h-.8v-8.1zm1.5 0h.8v8.1h-.8v-8.1z"></path><path fill-rule="evenodd" clip-rule="evenodd" fill="#23C2EE" d="M50.9 41.5h9.8v9.8h-9.8v-9.8zm.8.8h.8v8.1h-.8v-8.1zm1.5 0h.8v8.1h-.8v-8.1zm1.5 0h.8v8.1h-.8v-8.1zm1.4 0h.8v8.1h-.8v-8.1zm1.5 0h.8v8.1h-.8v-8.1zm1.5 0h.8v8.1h-.8v-8.1zm3.1 10.4H72v9.8h-9.8v-9.8zm.8.8h.8v8.1H63v-8.1zm1.5 0h.8v8.1h-.8v-8.1zm1.4 0h.8v8.1h-.8v-8.1zm1.5 0h.8v8.1h-.8v-8.1zm1.5 0h.8v8.1h-.8v-8.1zm1.5 0h.8v8.1h-.8v-8.1z"></path><path fill-rule="evenodd" clip-rule="evenodd" fill="#00ACD3" d="M62.2 41.5H72v9.8h-9.8v-9.8zm.8.8h.8v8.1H63v-8.1zm1.5 0h.8v8.1h-.8v-8.1zm1.4 0h.8v8.1h-.8v-8.1zm1.5 0h.8v8.1h-.8v-8.1zm1.5 0h.8v8.1h-.8v-8.1zm1.5 0h.8v8.1h-.8v-8.1z"></path><path fill-rule="evenodd" clip-rule="evenodd" fill="#23C2EE" d="M62.2 30.2H72V40h-9.8v-9.8zm.8.8h.8v8.1H63V31zm1.5 0h.8v8.1h-.8V31zm1.4 0h.8v8.1h-.8V31zm1.5 0h.8v8.1h-.8V31zm1.5 0h.8v8.1h-.8V31zm1.5 0h.8v8.1h-.8V31z"></path><path fill-rule="evenodd" clip-rule="evenodd" fill="#00ACD3" d="M73.5 52.7h9.8v9.8h-9.8v-9.8zm.8.8h.8v8.1h-.8v-8.1zm1.4 0h.8v8.1h-.8v-8.1zm1.5 0h.8v8.1h-.8v-8.1zm1.5 0h.8v8.1h-.8v-8.1zm1.5 0h.8v8.1h-.8v-8.1zm1.5 0h.8v8.1h-.8v-8.1z"></path><path fill-rule="evenodd" clip-rule="evenodd" fill="#D4EEF1" d="M48.8 78.3c1.5 0 2.7 1.2 2.7 2.7 0 1.5-1.2 2.7-2.7 2.7-1.5 0-2.7-1.2-2.7-2.7 0-1.5 1.2-2.7 2.7-2.7"></path><path fill-rule="evenodd" clip-rule="evenodd" fill="#3A4D54" d="M48.8 79.1c.2 0 .5 0 .7.1-.2.1-.4.4-.4.7 0 .4.4.8.8.8.3 0 .6-.2.7-.4.1.2.1.5.1.7 0 1.1-.9 1.9-1.9 1.9-1.1 0-1.9-.9-1.9-1.9 0-1 .8-1.9 1.9-1.9M1.1 72.8h125.4c-2.7-.7-8.6-1.6-7.7-5.2-5 5.7-16.9 4-20 1.2-3.4 4.9-23 3-24.3-.8-4.2 5-17.3 5-21.5 0-1.4 3.8-21 5.7-24.3.8-3 2.8-15 4.5-20-1.2 1.1 3.5-4.9 4.5-7.6 5.2"></path><path fill="#BFDBE0" d="M56 97.8c-6.7-3.2-10.3-7.5-12.4-12.2-2.5.7-5.5 1.2-8.9 1.4-1.3.1-2.7.1-4.1.1-1.7 0-3.4 0-5.2-.1 6 6 13.6 10.7 27.5 10.8H56z"></path><path fill="#D4EEF1" d="M46.1 89.9c-.9-1.3-1.8-2.8-2.5-4.3-2.5.7-5.5 1.2-8.9 1.4 2.3 1.2 5.7 2.4 11.4 2.9z"></path>
    </symbol>

    <symbol id="ansible" viewBox="0 0 128 128">
      <path fill="#1A1918" d="M126 64c0 34.2-27.8 62-62 62S2 98.2 2 64 29.8 2 64 2s62 27.8 62 62"></path><path fill="#FFF" d="M65 39.9l16 39.6-24.1-19.1L65 39.9zm28.5 48.7L68.9 29.2c-.7-1.7-2.1-2.6-3.8-2.6-1.7 0-3.2.9-3.9 2.6L34 94.3h9.3L54 67.5l32 25.9c1.3 1 2.2 1.5 3.4 1.5 2.4 0 4.5-1.8 4.5-4.4.1-.5-.1-1.2-.4-1.9z"></path>
    </symbol>

    <symbol id="gitlab" viewBox="0 0 128 128">
      <path fill="#E24329" d="m124.755 51.382-.177-.452L107.47 6.282a4.459 4.459 0 0 0-1.761-2.121 4.581 4.581 0 0 0-5.236.281 4.578 4.578 0 0 0-1.518 2.304L87.404 42.088H40.629L29.077 6.746a4.492 4.492 0 0 0-1.518-2.31 4.581 4.581 0 0 0-5.236-.281 4.502 4.502 0 0 0-1.761 2.121L3.422 50.904l-.17.452c-5.059 13.219-.763 28.192 10.537 36.716l.059.046.157.111 26.061 19.516 12.893 9.758 7.854 5.93a5.283 5.283 0 0 0 6.388 0l7.854-5.93 12.893-9.758 26.218-19.634.065-.052c11.273-8.526 15.562-23.472 10.524-36.677z"></path><path fill="#FC6D26" d="m124.755 51.382-.177-.452a57.79 57.79 0 0 0-23.005 10.341L64 89.682c12.795 9.68 23.934 18.09 23.934 18.09l26.218-19.634.065-.052c11.291-8.527 15.586-23.488 10.538-36.704z"></path><path fill="#FCA326" d="m40.066 107.771 12.893 9.758 7.854 5.93a5.283 5.283 0 0 0 6.388 0l7.854-5.93 12.893-9.758s-11.152-8.436-23.947-18.09a18379.202 18379.202 0 0 0-23.935 18.09z"></path><path fill="#FC6D26" d="M26.42 61.271A57.73 57.73 0 0 0 3.422 50.904l-.17.452c-5.059 13.219-.763 28.192 10.537 36.716l.059.046.157.111 26.061 19.516L64 89.655 26.42 61.271z"></path>
    </symbol>

    <symbol id="vercel" viewBox="0 0 128 128">
      <path fill="currentColor" d="M64.002 8.576 128 119.424H0Zm0 0"></path>
    </symbol>

    <symbol id="ionos" viewBox="0 0 1024 1024">
      <circle cx="512" cy="512" r="512" style="fill:#003d8f"/>
      <path d="M764 598.59a43.69 43.69 0 0 1-8.75-.89 45.36 45.36 0 0 1-29.91-21.36l-.16-.3a13.44 13.44 0 0 1 4.95-17.72 13 13 0 0 1 6.65-1.84 13.21 13.21 0 0 1 11.47 6.73c.13.24.28.49.44.74l1.4 1.9 1.87 1.89a18.29 18.29 0 0 0 8.55 4.13 18.8 18.8 0 0 0 14.73-3.37 17.82 17.82 0 0 0 7.4-13.33 18.42 18.42 0 0 0-5.12-14.3c-3.68-3.81-39.58-41.11-41.36-43a48.55 48.55 0 0 1-4.77-5.67c-5.59-7.92-7.33-17.25-6.47-26.49a43 43 0 0 1 5.57-18.31c3.21-5.61 1.81-3.07 2.35-3.85a50 50 0 0 1 9.05-9.22 46.41 46.41 0 0 1 7.59-4.56 43.47 43.47 0 0 1 56.46 17.43 12.82 12.82 0 0 1 1.37 9.95 13.11 13.11 0 0 1-6.25 8.08 12.58 12.58 0 0 1-6.41 1.74 13.09 13.09 0 0 1-11.39-6.7 17.2 17.2 0 0 0-11.52-8.14 17.85 17.85 0 0 0-14 3.14 17 17 0 0 0-6.61 12.32 17.33 17.33 0 0 0 4.73 13.41l40.47 41.73A44.82 44.82 0 0 1 764 598.6m-128.08 0a43.78 43.78 0 0 0 43.52-43.53V469a43.52 43.52 0 0 0-87 0v86a43.78 43.78 0 0 0 43.53 43.53m0-146.86A17.47 17.47 0 0 1 653.16 469v86a17.35 17.35 0 0 1-17.24 17.25h-.19a17.14 17.14 0 0 1-17.06-17.06V469a17.35 17.35 0 0 1 17.25-17.24m-195.47 8v125.67a13.14 13.14 0 1 0 26.28 0v-71.2zm71.28 50.13v-71.32a13.14 13.14 0 0 1 26.28 0v125.79zm26.06 72.77v2.81a13.19 13.19 0 0 1-24.92 6l-72.26-149.8v-3a13.16 13.16 0 0 1 25-5.68zm-195.68 16A43.79 43.79 0 0 0 385.63 555v-86a43.52 43.52 0 0 0-87 0v86a43.79 43.79 0 0 0 43.53 43.53m0-146.86A17.58 17.58 0 0 1 359.35 469v86.13a17.25 17.25 0 0 1-34.49 0V469a17.35 17.35 0 0 1 17.25-17.24M215 584v.09a14.33 14.33 0 0 0 28.66 0V439.74a14.33 14.33 0 0 0-28.66 0z" style="fill:#fff"/>
    </symbol>

    <symbol id="ovh" fill="#0050d7" viewBox="0 0 24 24">
      <path d="M19.881 10.095l2.563-4.45C23.434 7.389 24 9.404 24 11.555c0 2.88-1.017 5.523-2.71 7.594h-6.62l2.04-3.541h-2.696l3.176-5.513h2.691zm-2.32-5.243L9.333 19.14l.003.009H2.709C1.014 17.077 0 14.435 0 11.555c0-2.152.57-4.17 1.561-5.918L5.855 13.1 10.6 4.852h6.961z"/>
    </symbol>

    <symbol id="heroku" viewBox="0 0 128 128">
      <path fill="#6762A6" d="M102.1 2H25.9C19.3 2 14 7.3 14 13.9v100.3c0 6.6 5.3 11.9 11.9 11.9h76.3c6.6 0 11.9-5.3 11.9-11.9V13.9C114 7.3 108.7 2 102.1 2zM37 108.7V80.5l14.1 14.1L37 108.7zm53 .3H76.9l.1-.2V59.4s3.1-11.8-39.7 4.8c-.1.2-.2-45.7-.2-45.7l13.9-.1v29.4s39-15.4 39 11.7V109zm-5.2-73H70c5.3-6 10.2-17 10.2-17h15.3s-2.6 7-10.7 17z"></path>
    </symbol>

    <symbol id="render" viewBox="0 0 512 512" fill="none">
      <path d="M358.635 63.3162C307.498 60.9566 264.496 97.209 257.16 144.973C256.869 147.19 256.433 149.335 256.07 151.48C244.666 210.971 191.568 256.019 127.792 256.019C105.056 256.019 83.7007 250.298 65.1054 240.288C62.8536 239.072 60.166 240.645 60.166 243.148V255.947V448.793H255.997V304.212C255.997 277.613 277.934 256.019 304.955 256.019H353.913C409.336 256.019 453.935 210.757 451.756 155.699C449.795 106.147 408.973 65.6758 358.635 63.3162Z" fill="currentColor"/>
    </symbol>
          
  </defs>
</svg>