<svg xmlns="http://www.w3.org/2000/svg">
  <defs>
    <symbol id="menu" viewBox="0 0 24 24" fill="none" stroke-linecap="round" stroke-linejoin="round" stroke-width="1.5">
      <path d="M3 12h18"/>
      <path d="M3 6h18"/>
      <path d="M3 18h18"/>
    </symbol>

    <symbol id="x" viewBox="0 0 24 24" fill="none" stroke-linecap="round" stroke-linejoin="round" stroke-width="1.5">
      <path d="M18 6L6 18"/>
      <path d="M6 6l12 12"/>
    </symbol>

    <symbol id="search" viewBox="0 0 24 24" fill="none" stroke-linecap="round" stroke-linejoin="round" stroke-width="1.5">
      <path d="M11 17.25a6.25 6.25 0 110-12.5 6.25 6.25 0 010 12.5z"/>
      <path d="M16 16l4.5 4.5"/>
    </symbol>

    <symbol id="rss" viewBox="0 0 24 24" fill="none" stroke-linecap="round" stroke-linejoin="round" stroke-width="1.5">
      <path d="M4 11a9 9 0 019 9"/>
      <path d="M4 4a16 16 0 0116 16"/>
      <circle cx="5" cy="19" r="1"/>
    </symbol>

    <symbol id="sun" viewBox="0 0 24 24" fill="none" stroke-linecap="round" stroke-linejoin="round" stroke-width="1.5">
      <circle cx="12" cy="12" r="5"/>
      <path d="M12 1v2"/>
      <path d="M12 21v2"/>
      <path d="M4.22 4.22l1.42 1.42"/>
      <path d="M18.36 18.36l1.42 1.42"/>
      <path d="M1 12h2"/>
      <path d="M21 12h2"/>
      <path d="M4.22 19.78l1.42-1.42"/>
      <path d="M18.36 5.64l1.42-1.42"/>
    </symbol>

    <symbol id="moon" viewBox="0 0 24 24" fill="none" stroke-linecap="round" stroke-linejoin="round" stroke-width="1.5">
      <path d="M21 12.79A9 9 0 1111.21 3 7 7 0 0021 12.79z"/>
    </symbol>

    <symbol id="square" viewBox="0 0 448 512">
      <path d="M384 80c8.8 0 16 7.2 16 16V416c0 8.8-7.2 16-16 16H64c-8.8 0-16-7.2-16-16V96c0-8.8 7.2-16 16-16H384zM64 32C28.7 32 0 60.7 0 96V416c0 35.3 28.7 64 64 64H384c35.3 0 64-28.7 64-64V96c0-35.3-28.7-64-64-64H64z"/>
    </symbol>

    <symbol id="square-check" viewBox="0 0 448 512">
      <path d="M64 32C28.7 32 0 60.7 0 96V416c0 35.3 28.7 64 64 64H384c35.3 0 64-28.7 64-64V96c0-35.3-28.7-64-64-64H64zM337 209L209 337c-9.4 9.4-24.6 9.4-33.9 0l-64-64c-9.4-9.4-9.4-24.6 0-33.9s24.6-9.4 33.9 0l47 47L303 175c9.4-9.4 24.6-9.4 33.9 0s9.4 24.6 0 33.9z"/>
    </symbol>

    <symbol id="calendar" fill="none" stroke-linecap="round" stroke-linejoin="round" stroke-width="1.5" viewBox="0 0 24 24">
      <rect x="3" y="4" width="18" height="18" rx="2" ry="2"/>
      <path d="M16 2v4"/>
      <path d="M8 2v4"/>
      <path d="M3 10h18"/>
    </symbol>

    <symbol id="book-open" fill="none" stroke-linecap="round" stroke-linejoin="round" stroke-width="1.5" viewBox="0 0 24 24">
      <path d="M2 3h6a4 4 0 014 4v14a3 3 0 00-3-3H2z"/>
      <path d="M22 3h-6a4 4 0 00-4 4v14a3 3 0 013-3h7z"/>
    </symbol>

    <symbol id="arrow-right" fill="none" stroke-linecap="round" stroke-linejoin="round" stroke-width="1.5" viewBox="0 0 24 24">
      <path d="M5 12h14"/>
      <path d="M12 5l7 7-7 7"/>
    </symbol>

    <symbol id="globe" viewBox="0 0 16 16">
      <path fill-rule="evenodd" clip-rule="evenodd" d="M10.268 14.0934C11.9051 13.4838 13.2303 12.2333 13.9384 10.6469C13.1192 10.7941 12.2138 10.9111 11.2469 10.9925C11.0336 12.2005 10.695 13.2621 10.268 14.0934ZM8 16C12.4183 16 16 12.4183 16 8C16 3.58172 12.4183 0 8 0C3.58172 0 0 3.58172 0 8C0 12.4183 3.58172 16 8 16ZM8.48347 14.4823C8.32384 14.494 8.16262 14.5 8 14.5C7.83738 14.5 7.67616 14.494 7.51654 14.4823C7.5132 14.4791 7.50984 14.4759 7.50647 14.4726C7.2415 14.2165 6.94578 13.7854 6.67032 13.1558C6.41594 12.5744 6.19979 11.8714 6.04101 11.0778C6.67605 11.1088 7.33104 11.125 8 11.125C8.66896 11.125 9.32395 11.1088 9.95899 11.0778C9.80021 11.8714 9.58406 12.5744 9.32968 13.1558C9.05422 13.7854 8.7585 14.2165 8.49353 14.4726C8.49016 14.4759 8.4868 14.4791 8.48347 14.4823ZM11.4187 9.72246C12.5137 9.62096 13.5116 9.47245 14.3724 9.28806C14.4561 8.87172 14.5 8.44099 14.5 8C14.5 7.55901 14.4561 7.12828 14.3724 6.71194C13.5116 6.52755 12.5137 6.37904 11.4187 6.27753C11.4719 6.83232 11.5 7.40867 11.5 8C11.5 8.59133 11.4719 9.16768 11.4187 9.72246ZM10.1525 6.18401C10.2157 6.75982 10.25 7.36805 10.25 8C10.25 8.63195 10.2157 9.24018 10.1525 9.81598C9.46123 9.85455 8.7409 9.875 8 9.875C7.25909 9.875 6.53877 9.85455 5.84749 9.81598C5.7843 9.24018 5.75 8.63195 5.75 8C5.75 7.36805 5.7843 6.75982 5.84749 6.18401C6.53877 6.14545 7.25909 6.125 8 6.125C8.74091 6.125 9.46123 6.14545 10.1525 6.18401ZM11.2469 5.00748C12.2138 5.08891 13.1191 5.20593 13.9384 5.35306C13.2303 3.7667 11.9051 2.51622 10.268 1.90662C10.695 2.73788 11.0336 3.79953 11.2469 5.00748ZM8.48347 1.51771C8.4868 1.52089 8.49016 1.52411 8.49353 1.52737C8.7585 1.78353 9.05422 2.21456 9.32968 2.84417C9.58406 3.42562 9.80021 4.12856 9.95899 4.92219C9.32395 4.89118 8.66896 4.875 8 4.875C7.33104 4.875 6.67605 4.89118 6.04101 4.92219C6.19978 4.12856 6.41594 3.42562 6.67032 2.84417C6.94578 2.21456 7.2415 1.78353 7.50647 1.52737C7.50984 1.52411 7.51319 1.52089 7.51653 1.51771C7.67615 1.50597 7.83738 1.5 8 1.5C8.16262 1.5 8.32384 1.50597 8.48347 1.51771ZM5.73202 1.90663C4.0949 2.51622 2.76975 3.7667 2.06159 5.35306C2.88085 5.20593 3.78617 5.08891 4.75309 5.00748C4.96639 3.79953 5.30497 2.73788 5.73202 1.90663ZM4.58133 6.27753C3.48633 6.37904 2.48837 6.52755 1.62761 6.71194C1.54392 7.12828 1.5 7.55901 1.5 8C1.5 8.44099 1.54392 8.87172 1.62761 9.28806C2.48837 9.47245 3.48633 9.62096 4.58133 9.72246C4.52807 9.16768 4.5 8.59133 4.5 8C4.5 7.40867 4.52807 6.83232 4.58133 6.27753ZM4.75309 10.9925C3.78617 10.9111 2.88085 10.7941 2.06159 10.6469C2.76975 12.2333 4.0949 13.4838 5.73202 14.0934C5.30497 13.2621 4.96639 12.2005 4.75309 10.9925Z"/>
    </symbol>

    <symbol id="link" viewBox="0 0 16 16">
      <path d="M8.46968 1.46968C10.1433 -0.203925 12.8567 -0.203923 14.5303 1.46968C16.2039 3.14329 16.2039 5.85674 14.5303 7.53034L12.0303 10.0303L10.9697 8.96968L13.4697 6.46968C14.5575 5.38186 14.5575 3.61816 13.4697 2.53034C12.3819 1.44252 10.6182 1.44252 9.53034 2.53034L7.03034 5.03034L5.96968 3.96968L8.46968 1.46968ZM11.5303 5.53034L5.53034 11.5303L4.46968 10.4697L10.4697 4.46968L11.5303 5.53034ZM1.46968 14.5303C3.14329 16.2039 5.85673 16.204 7.53034 14.5303L10.0303 12.0303L8.96968 10.9697L6.46968 13.4697C5.38186 14.5575 3.61816 14.5575 2.53034 13.4697C1.44252 12.3819 1.44252 10.6182 2.53034 9.53034L5.03034 7.03034L3.96968 5.96968L1.46968 8.46968C-0.203923 10.1433 -0.203925 12.8567 1.46968 14.5303Z"/>
    </symbol>

    <symbol id="github" viewBox="0 0 496 512">
      <path d="M165.9 397.4c0 2-2.3 3.6-5.2 3.6-3.3 .3-5.6-1.3-5.6-3.6 0-2 2.3-3.6 5.2-3.6 3-.3 5.6 1.3 5.6 3.6zm-31.1-4.5c-.7 2 1.3 4.3 4.3 4.9 2.6 1 5.6 0 6.2-2s-1.3-4.3-4.3-5.2c-2.6-.7-5.5 .3-6.2 2.3zm44.2-1.7c-2.9 .7-4.9 2.6-4.6 4.9 .3 2 2.9 3.3 5.9 2.6 2.9-.7 4.9-2.6 4.6-4.6-.3-1.9-3-3.2-5.9-2.9zM244.8 8C106.1 8 0 113.3 0 252c0 110.9 69.8 205.8 169.5 239.2 12.8 2.3 17.3-5.6 17.3-12.1 0-6.2-.3-40.4-.3-61.4 0 0-70 15-84.7-29.8 0 0-11.4-29.1-27.8-36.6 0 0-22.9-15.7 1.6-15.4 0 0 24.9 2 38.6 25.8 21.9 38.6 58.6 27.5 72.9 20.9 2.3-16 8.8-27.1 16-33.7-55.9-6.2-112.3-14.3-112.3-110.5 0-27.5 7.6-41.3 23.6-58.9-2.6-6.5-11.1-33.3 2.6-67.9 20.9-6.5 69 27 69 27 20-5.6 41.5-8.5 62.8-8.5s42.8 2.9 62.8 8.5c0 0 48.1-33.6 69-27 13.7 34.7 5.2 61.4 2.6 67.9 16 17.7 25.8 31.5 25.8 58.9 0 96.5-58.9 104.2-114.8 110.5 9.2 7.9 17 22.9 17 46.4 0 33.7-.3 75.4-.3 83.6 0 6.5 4.6 14.4 17.3 12.1C428.2 457.8 496 362.9 496 252 496 113.3 383.5 8 244.8 8zM97.2 352.9c-1.3 1-1 3.3 .7 5.2 1.6 1.6 3.9 2.3 5.2 1 1.3-1 1-3.3-.7-5.2-1.6-1.6-3.9-2.3-5.2-1zm-10.8-8.1c-.7 1.3 .3 2.9 2.3 3.9 1.6 1 3.6 .7 4.3-.7 .7-1.3-.3-2.9-2.3-3.9-2-.6-3.6-.3-4.3 .7zm32.4 35.6c-1.6 1.3-1 4.3 1.3 6.2 2.3 2.3 5.2 2.6 6.5 1 1.3-1.3 .7-4.3-1.3-6.2-2.2-2.3-5.2-2.6-6.5-1zm-11.4-14.7c-1.6 1-1.6 3.6 0 5.9 1.6 2.3 4.3 3.3 5.6 2.3 1.6-1.3 1.6-3.9 0-6.2-1.4-2.3-4-3.3-5.6-2z"/>
    </symbol>

    <symbol id="gitlab" viewBox="0 0 512 512">
      <path d="M503.5 204.6L502.8 202.8L433.1 21C431.7 17.5 429.2 14.4 425.9 12.4C423.5 10.8 420.8 9.9 417.9 9.6C415 9.3 412.2 9.7 409.5 10.7C406.8 11.7 404.4 13.3 402.4 15.5C400.5 17.6 399.1 20.1 398.3 22.9L351.3 166.9H160.8L113.7 22.9C112.9 20.1 111.5 17.6 109.6 15.5C107.6 13.4 105.2 11.7 102.5 10.7C99.9 9.7 97 9.3 94.1 9.6C91.3 9.9 88.5 10.8 86.1 12.4C82.8 14.4 80.3 17.5 78.9 21L9.3 202.8L8.5 204.6C-1.5 230.8-2.7 259.6 5 286.6C12.8 313.5 29.1 337.3 51.5 354.2L51.7 354.4L52.3 354.8L158.3 434.3L210.9 474L242.9 498.2C246.6 500.1 251.2 502.5 255.9 502.5C260.6 502.5 265.2 500.1 268.9 498.2L300.9 474L353.5 434.3L460.2 354.4L460.5 354.1C482.9 337.2 499.2 313.5 506.1 286.6C514.7 259.6 513.5 230.8 503.5 204.6z"/>
    </symbol>

    <symbol id="paper" viewBox="0 0 15 15" fill="none">
      <path d="M4.2 1H4.17741H4.1774C3.86936 0.999988 3.60368 0.999978 3.38609 1.02067C3.15576 1.04257 2.92825 1.09113 2.71625 1.22104C2.51442 1.34472 2.34473 1.51442 2.22104 1.71625C2.09113 1.92825 2.04257 2.15576 2.02067 2.38609C1.99998 2.60367 1.99999 2.86935 2 3.17738V3.1774V3.2V11.8V11.8226V11.8226C1.99999 12.1307 1.99998 12.3963 2.02067 12.6139C2.04257 12.8442 2.09113 13.0717 2.22104 13.2837C2.34473 13.4856 2.51442 13.6553 2.71625 13.779C2.92825 13.9089 3.15576 13.9574 3.38609 13.9793C3.60368 14 3.86937 14 4.17741 14H4.2H10.8H10.8226C11.1306 14 11.3963 14 11.6139 13.9793C11.8442 13.9574 12.0717 13.9089 12.2837 13.779C12.4856 13.6553 12.6553 13.4856 12.779 13.2837C12.9089 13.0717 12.9574 12.8442 12.9793 12.6139C13 12.3963 13 12.1306 13 11.8226V11.8V3.2V3.17741C13 2.86936 13 2.60368 12.9793 2.38609C12.9574 2.15576 12.9089 1.92825 12.779 1.71625C12.6553 1.51442 12.4856 1.34472 12.2837 1.22104C12.0717 1.09113 11.8442 1.04257 11.6139 1.02067C11.3963 0.999978 11.1306 0.999988 10.8226 1H10.8H4.2ZM3.23875 2.07368C3.26722 2.05623 3.32362 2.03112 3.48075 2.01618C3.64532 2.00053 3.86298 2 4.2 2H10.8C11.137 2 11.3547 2.00053 11.5193 2.01618C11.6764 2.03112 11.7328 2.05623 11.7613 2.07368C11.8285 2.11491 11.8851 2.17147 11.9263 2.23875C11.9438 2.26722 11.9689 2.32362 11.9838 2.48075C11.9995 2.64532 12 2.86298 12 3.2V11.8C12 12.137 11.9995 12.3547 11.9838 12.5193C11.9689 12.6764 11.9438 12.7328 11.9263 12.7613C11.8851 12.8285 11.8285 12.8851 11.7613 12.9263C11.7328 12.9438 11.6764 12.9689 11.5193 12.9838C11.3547 12.9995 11.137 13 10.8 13H4.2C3.86298 13 3.64532 12.9995 3.48075 12.9838C3.32362 12.9689 3.26722 12.9438 3.23875 12.9263C3.17147 12.8851 3.11491 12.8285 3.07368 12.7613C3.05624 12.7328 3.03112 12.6764 3.01618 12.5193C3.00053 12.3547 3 12.137 3 11.8V3.2C3 2.86298 3.00053 2.64532 3.01618 2.48075C3.03112 2.32362 3.05624 2.26722 3.07368 2.23875C3.11491 2.17147 3.17147 2.11491 3.23875 2.07368ZM5 10C4.72386 10 4.5 10.2239 4.5 10.5C4.5 10.7761 4.72386 11 5 11H8C8.27614 11 8.5 10.7761 8.5 10.5C8.5 10.2239 8.27614 10 8 10H5ZM4.5 7.5C4.5 7.22386 4.72386 7 5 7H10C10.2761 7 10.5 7.22386 10.5 7.5C10.5 7.77614 10.2761 8 10 8H5C4.72386 8 4.5 7.77614 4.5 7.5ZM5 4C4.72386 4 4.5 4.22386 4.5 4.5C4.5 4.77614 4.72386 5 5 5H10C10.2761 5 10.5 4.77614 10.5 4.5C10.5 4.22386 10.2761 4 10 4H5Z" fill="currentColor" fill-rule="evenodd" clip-rule="evenodd"></path>
    </symbol>

    <symbol id="log" fill="none" viewBox="0 0 16 16">
      <path stroke="currentColor" stroke-linecap="round" stroke-width="1.25" d="M1 8.5h1.917a.12.12 0 0 0 .112-.078l1.339-3.569a.12.12 0 0 1 .228.012l2.294 8.717c.031.117.197.12.231.003l3.267-11.2c.033-.115.195-.116.23-.002l1.856 6.032a.12.12 0 0 0 .115.085H14.5"/>
    </symbol>

    <!-- <symbol id="eye" viewBox="0 0 15 15" fill="none">
      <path d="M7.5 11C4.80285 11 2.52952 9.62184 1.09622 7.50001C2.52952 5.37816 4.80285 4 7.5 4C10.1971 4 12.4705 5.37816 13.9038 7.50001C12.4705 9.62183 10.1971 11 7.5 11ZM7.5 3C4.30786 3 1.65639 4.70638 0.0760002 7.23501C-0.0253338 7.39715 -0.0253334 7.60288 0.0760014 7.76501C1.65639 10.2936 4.30786 12 7.5 12C10.6921 12 13.3436 10.2936 14.924 7.76501C15.0253 7.60288 15.0253 7.39715 14.924 7.23501C13.3436 4.70638 10.6921 3 7.5 3ZM7.5 9.5C8.60457 9.5 9.5 8.60457 9.5 7.5C9.5 6.39543 8.60457 5.5 7.5 5.5C6.39543 5.5 5.5 6.39543 5.5 7.5C5.5 8.60457 6.39543 9.5 7.5 9.5Z" fill="currentColor" fill-rule="evenodd" clip-rule="evenodd"></path>
    </symbol> -->

    <symbol id="eye" fill="currentColor" viewBox="0 0 16 16">
  <path fill-rule="evenodd" d="M8 12.246c-2.611 0-5.263-1.864-6.18-4.248C2.738 5.614 5.39 3.75 8 3.75c2.611 0 5.263 1.864 6.18 4.248-.917 2.384-3.569 4.248-6.18 4.248Zm0 1.25c3.281 0 6.563-2.405 7.5-5.498C14.562 4.905 11.281 2.5 8 2.5 4.719 2.5 1.437 4.905.5 7.998c.938 3.093 4.219 5.498 7.5 5.498Zm1.252-5.498a1.25 1.25 0 1 1-2.5 0 1.25 1.25 0 0 1 2.5 0Zm1.25 0a2.5 2.5 0 1 1-5 0 2.5 2.5 0 0 1 5 0Z" clip-rule="evenodd"/>
</symbol>
  </defs>
</svg>